Coda-Heavy.ufo
<glyph name="numbersign" format="1">
  <advance width="1718"/>
  <unicode hex="0023"/>
  <outline>
    <contour>
      <point x="734" y="621" type="line" smooth="no"/>
      <point x="931" y="621" type="line" smooth="no"/>
      <point x="983" y="993" type="line" smooth="no"/>
      <point x="786" y="993" type="line" smooth="no"/>
    </contour>
    <contour>
      <point x="1567" y="430" type="line" smooth="no"/>
      <point x="1402" y="430" type="line" smooth="no"/>
      <point x="1342" y="0" type="line" smooth="no"/>
      <point x="841" y="0" type="line" smooth="no"/>
      <point x="902" y="429" type="line" smooth="no"/>
      <point x="705" y="429" type="line" smooth="no"/>
      <point x="645" y="0" type="line" smooth="no"/>
      <point x="143" y="0" type="line" smooth="no"/>
      <point x="204" y="429" type="line" smooth="no"/>
      <point x="70" y="429" type="line" smooth="no"/>
      <point x="96" y="621" type="line" smooth="no"/>
      <point x="234" y="621" type="line" smooth="no"/>
      <point x="285" y="993" type="line" smooth="no"/>
      <point x="137" y="993" type="line" smooth="no"/>
      <point x="166" y="1200" type="line" smooth="no"/>
      <point x="319" y="1200" type="line" smooth="no"/>
      <point x="373" y="1595" type="line" smooth="no"/>
      <point x="872" y="1595" type="line" smooth="no"/>
      <point x="819" y="1200" type="line" smooth="no"/>
      <point x="1016" y="1200" type="line" smooth="no"/>
      <point x="1071" y="1595" type="line" smooth="no"/>
      <point x="1569" y="1595" type="line" smooth="no"/>
      <point x="1516" y="1200" type="line" smooth="no"/>
      <point x="1664" y="1200" type="line" smooth="no"/>
      <point x="1634" y="994" type="line" smooth="no"/>
      <point x="1483" y="994" type="line" smooth="no"/>
      <point x="1431" y="621" type="line" smooth="no"/>
      <point x="1594" y="621" type="line" smooth="no"/>
    </contour>
  </outline>
</glyph>
<glyph name="percent" format="1">
  <advance width="2792"/>
  <unicode hex="0025"/>
  <outline>
    <contour>
      <point x="1779" y="1632" type="line" smooth="no"/>
      <point x="1403" y="-39" type="line" smooth="no"/>
      <point x="1015" y="-39" type="line" smooth="no"/>
      <point x="1395" y="1632" type="line" smooth="no"/>
    </contour>
    <contour>
      <point x="2215" y="129" type="curve" smooth="yes"/>
      <point x="1990" y="129"/>
      <point x="1765" y="146"/>
      <point x="1765" y="441" type="curve" smooth="yes"/>
      <point x="1765" y="798" type="line" smooth="yes"/>
      <point x="1765" y="1091"/>
      <point x="1990" y="1109"/>
      <point x="2214" y="1109" type="curve" smooth="yes"/>
      <point x="2437" y="1109"/>
      <point x="2665" y="1092"/>
      <point x="2665" y="799" type="curve" smooth="yes"/>
      <point x="2665" y="442" type="line" smooth="yes"/>
      <point x="2665" y="153"/>
      <point x="2436" y="129"/>
    </contour>
    <contour>
      <point x="2262" y="892" type="line" smooth="no"/>
      <point x="2172" y="892" type="line" smooth="no"/>
      <point x="2172" y="347" type="line" smooth="no"/>
      <point x="2262" y="347" type="line" smooth="no"/>
    </contour>
    <contour>
      <point x="575" y="618" type="curve" smooth="yes"/>
      <point x="349" y="618"/>
      <point x="125" y="623"/>
      <point x="125" y="927" type="curve" smooth="yes"/>
      <point x="125" y="1286" type="line" smooth="yes"/>
      <point x="125" y="1577"/>
      <point x="352" y="1595"/>
      <point x="574" y="1595" type="curve" smooth="yes"/>
      <point x="795" y="1595"/>
      <point x="1025" y="1578"/>
      <point x="1025" y="1288" type="curve" smooth="yes"/>
      <point x="1025" y="929" type="line" smooth="yes"/>
      <point x="1025" y="630"/>
      <point x="798" y="618"/>
    </contour>
    <contour>
      <point x="623" y="1378" type="line" smooth="no"/>
      <point x="532" y="1378" type="line" smooth="no"/>
      <point x="532" y="833" type="line" smooth="no"/>
      <point x="623" y="833" type="line" smooth="no"/>
    </contour>
  </outline>
</glyph>
<glyph name="parenleft" format="1">
  <advance width="860"/>
  <unicode hex="0028"/>
  <outline>
    <contour>
      <point x="51" y="827" type="curve" smooth="yes"/>
      <point x="51" y="1328"/>
      <point x="253" y="1841"/>
      <point x="678" y="1841" type="curve" smooth="yes"/>
      <point x="771" y="1841" type="line" smooth="no"/>
      <point x="771" y="1562" type="line" smooth="no"/>
      <point x="706" y="1562" type="line" smooth="yes"/>
      <point x="545" y="1562"/>
      <point x="453" y="1188"/>
      <point x="453" y="827" type="curve" smooth="yes"/>
      <point x="453" y="466"/>
      <point x="545" y="110"/>
      <point x="706" y="110" type="curve" smooth="yes"/>
      <point x="771" y="110" type="line" smooth="no"/>
      <point x="771" y="-169" type="line" smooth="no"/>
      <point x="678" y="-169" type="line" smooth="yes"/>
      <point x="253" y="-169"/>
      <point x="51" y="326"/>
    </contour>
  </outline>
</glyph>
<glyph name="parenright" format="1">
  <advance width="861"/>
  <unicode hex="0029"/>
  <outline>
    <contour>
      <point x="810" y="827" type="curve" smooth="yes"/>
      <point x="810" y="326"/>
      <point x="608" y="-169"/>
      <point x="183" y="-169" type="curve" smooth="yes"/>
      <point x="90" y="-169" type="line" smooth="no"/>
      <point x="90" y="110" type="line" smooth="no"/>
      <point x="155" y="110" type="line" smooth="yes"/>
      <point x="316" y="110"/>
      <point x="408" y="466"/>
      <point x="408" y="827" type="curve" smooth="yes"/>
      <point x="408" y="1188"/>
      <point x="316" y="1562"/>
      <point x="155" y="1562" type="curve" smooth="yes"/>
      <point x="90" y="1562" type="line" smooth="no"/>
      <point x="90" y="1841" type="line" smooth="no"/>
      <point x="183" y="1841" type="line" smooth="yes"/>
      <point x="608" y="1841"/>
      <point x="810" y="1328"/>
    </contour>
  </outline>
</glyph>
<glyph name="asterisk" format="1">
  <advance width="1321"/>
  <unicode hex="002a"/>
  <outline>
    <contour>
      <point x="775" y="489" type="curve" smooth="yes"/>
      <point x="739" y="549"/>
      <point x="701" y="703"/>
      <point x="663" y="840" type="curve" smooth="no"/>
      <point x="596" y="599"/>
      <point x="572" y="430"/>
      <point x="450" y="430" type="curve" smooth="yes"/>
      <point x="368" y="430"/>
      <point x="282" y="502"/>
      <point x="282" y="581" type="curve" smooth="yes"/>
      <point x="282" y="658"/>
      <point x="408" y="765"/>
      <point x="551" y="899" type="curve" smooth="no"/>
      <point x="415" y="861"/>
      <point x="267" y="817"/>
      <point x="198" y="817" type="curve" smooth="yes"/>
      <point x="113" y="817"/>
      <point x="73" y="889"/>
      <point x="73" y="962" type="curve" smooth="yes"/>
      <point x="73" y="1037"/>
      <point x="116" y="1112"/>
      <point x="199" y="1112" type="curve" smooth="yes"/>
      <point x="270" y="1112"/>
      <point x="417" y="1065"/>
      <point x="551" y="1027" type="curve" smooth="no"/>
      <point x="403" y="1170"/>
      <point x="282" y="1275"/>
      <point x="282" y="1351" type="curve" smooth="yes"/>
      <point x="282" y="1431"/>
      <point x="369" y="1497"/>
      <point x="450" y="1497" type="curve" smooth="yes"/>
      <point x="490" y="1497"/>
      <point x="529" y="1480"/>
      <point x="553" y="1440" type="curve" smooth="yes"/>
      <point x="591" y="1376"/>
      <point x="627" y="1219"/>
      <point x="663" y="1080" type="curve" smooth="no"/>
      <point x="700" y="1219"/>
      <point x="736" y="1376"/>
      <point x="774" y="1440" type="curve" smooth="yes"/>
      <point x="798" y="1480"/>
      <point x="836" y="1497"/>
      <point x="877" y="1497" type="curve" smooth="yes"/>
      <point x="957" y="1497"/>
      <point x="1045" y="1430"/>
      <point x="1045" y="1351" type="curve" smooth="yes"/>
      <point x="1045" y="1275"/>
      <point x="921" y="1169"/>
      <point x="775" y="1027" type="curve" smooth="no"/>
      <point x="909" y="1065"/>
      <point x="1057" y="1112"/>
      <point x="1128" y="1112" type="curve" smooth="yes"/>
      <point x="1211" y="1112"/>
      <point x="1254" y="1037"/>
      <point x="1254" y="962" type="curve" smooth="yes"/>
      <point x="1254" y="889"/>
      <point x="1214" y="817"/>
      <point x="1128" y="817" type="curve" smooth="yes"/>
      <point x="1059" y="817"/>
      <point x="911" y="862"/>
      <point x="775" y="899" type="curve" smooth="no"/>
      <point x="917" y="765"/>
      <point x="1044" y="657"/>
      <point x="1044" y="581" type="curve" smooth="yes"/>
      <point x="1044" y="500"/>
      <point x="957" y="430"/>
      <point x="877" y="430" type="curve" smooth="yes"/>
      <point x="838" y="430"/>
      <point x="800" y="447"/>
    </contour>
  </outline>
</glyph>
<glyph name="plus" format="1">
  <advance width="1328"/>
  <unicode hex="002b"/>
  <outline>
    <contour>
      <point x="469" y="811" type="line" smooth="no"/>
      <point x="469" y="1192" type="line" smooth="no"/>
      <point x="861" y="1192" type="line" smooth="no"/>
      <point x="861" y="811" type="line" smooth="no"/>
      <point x="1225" y="811" type="line" smooth="no"/>
      <point x="1225" y="478" type="line" smooth="no"/>
      <point x="861" y="478" type="line" smooth="no"/>
      <point x="861" y="100" type="line" smooth="no"/>
      <point x="469" y="100" type="line" smooth="no"/>
      <point x="469" y="478" type="line" smooth="no"/>
      <point x="104" y="478" type="line" smooth="no"/>
      <point x="104" y="811" type="line" smooth="no"/>
    </contour>
  </outline>
</glyph>
<glyph name="comma" format="1">
  <advance width="711"/>
  <unicode hex="002c"/>
  <outline>
    <contour>
      <point x="141" y="209" type="curve" smooth="yes"/>
      <point x="141" y="342"/>
      <point x="243" y="409"/>
      <point x="345" y="409" type="curve" smooth="yes"/>
      <point x="489" y="409"/>
      <point x="555" y="298"/>
      <point x="555" y="169" type="curve" smooth="yes"/>
      <point x="555" y="-15"/>
      <point x="429" y="-234"/>
      <point x="208" y="-234" type="curve" smooth="yes"/>
      <point x="194" y="-234"/>
      <point x="179" y="-233"/>
      <point x="164" y="-231" type="curve" smooth="no"/>
      <point x="164" y="-122" type="line" smooth="no"/>
      <point x="244" y="-121"/>
      <point x="314" y="-77"/>
      <point x="320" y="0" type="curve" smooth="no"/>
      <point x="227" y="10"/>
      <point x="141" y="80"/>
    </contour>
  </outline>
</glyph>
<glyph name="period" format="1">
  <advance width="670"/>
  <unicode hex="002e"/>
  <outline>
    <contour>
      <point x="136" y="171" type="curve" smooth="yes"/>
      <point x="136" y="311"/>
      <point x="238" y="381"/>
      <point x="340" y="381" type="curve" smooth="yes"/>
      <point x="442" y="381"/>
      <point x="544" y="311"/>
      <point x="544" y="171" type="curve" smooth="yes"/>
      <point x="544" y="31"/>
      <point x="442" y="-39"/>
      <point x="340" y="-39" type="curve" smooth="yes"/>
      <point x="238" y="-39"/>
      <point x="136" y="31"/>
    </contour>
  </outline>
</glyph>
<glyph name="slash" format="1">
  <advance width="1056"/>
  <unicode hex="002f"/>
  <outline>
    <contour>
      <point x="136" y="0" type="line" smooth="no"/>
      <point x="488" y="1595" type="line" smooth="no"/>
      <point x="922" y="1595" type="line" smooth="no"/>
      <point x="571" y="0" type="line" smooth="no"/>
    </contour>
  </outline>
</glyph>
<glyph name="zero" format="1">
  <advance width="1469"/>
  <unicode hex="0030"/>
  <outline>
    <contour>
      <point x="739" y="-39" type="curve" smooth="yes"/>
      <point x="422" y="-39"/>
      <point x="89" y="-14"/>
      <point x="89" y="352" type="curve" smooth="yes"/>
      <point x="89" y="1242" type="line" smooth="yes"/>
      <point x="89" y="1610"/>
      <point x="429" y="1633"/>
      <point x="738" y="1633" type="curve" smooth="yes"/>
      <point x="1056" y="1633"/>
      <point x="1383" y="1603"/>
      <point x="1383" y="1242" type="curve" smooth="yes"/>
      <point x="1383" y="352" type="line" smooth="yes"/>
      <point x="1383" y="-25"/>
      <point x="1051" y="-39"/>
    </contour>
    <contour>
      <point x="653" y="233" type="line" smooth="no"/>
      <point x="819" y="233" type="line" smooth="no"/>
      <point x="819" y="1359" type="line" smooth="no"/>
      <point x="653" y="1359" type="line" smooth="no"/>
    </contour>
  </outline>
</glyph>
<glyph name="one" format="1">
  <advance width="961"/>
  <unicode hex="0031"/>
  <outline>
    <contour>
      <point x="41" y="1511" type="line" smooth="no"/>
      <point x="178" y="1511"/>
      <point x="300" y="1542"/>
      <point x="388" y="1595" type="curve" smooth="no"/>
      <point x="866" y="1595" type="line" smooth="no"/>
      <point x="866" y="0" type="line" smooth="no"/>
      <point x="262" y="0" type="line" smooth="no"/>
      <point x="262" y="1291" type="line" smooth="no"/>
      <point x="41" y="1291" type="line" smooth="no"/>
    </contour>
  </outline>
</glyph>
<glyph name="four" format="1">
  <advance width="1459"/>
  <unicode hex="0034"/>
  <outline>
    <contour>
      <point x="1377" y="0" type="line" smooth="no"/>
      <point x="865" y="0" type="line" smooth="no"/>
      <point x="865" y="240" type="line" smooth="no"/>
      <point x="73" y="240" type="line" smooth="no"/>
      <point x="73" y="657" type="line" smooth="no"/>
      <point x="327" y="1595" type="line" smooth="no"/>
      <point x="900" y="1595" type="line" smooth="no"/>
      <point x="649" y="657" type="line" smooth="no"/>
      <point x="649" y="603" type="line" smooth="no"/>
      <point x="865" y="603" type="line" smooth="no"/>
      <point x="865" y="938" type="line" smooth="no"/>
      <point x="1377" y="938" type="line" smooth="no"/>
    </contour>
  </outline>
</glyph>
<glyph name="five" format="1">
  <advance width="1429"/>
  <unicode hex="0035"/>
  <outline>
    <contour>
      <point x="955" y="1105" type="curve" smooth="yes"/>
      <point x="1281" y="1105"/>
      <point x="1364" y="881"/>
      <point x="1364" y="553" type="curve" smooth="yes"/>
      <point x="1364" y="87"/>
      <point x="1187" y="-39"/>
      <point x="714" y="-39" type="curve" smooth="yes"/>
      <point x="369" y="-39"/>
      <point x="113" y="30"/>
      <point x="75" y="331" type="curve" smooth="yes"/>
      <point x="69" y="376"/>
      <point x="66" y="424"/>
      <point x="66" y="474" type="curve" smooth="no"/>
      <point x="616" y="474" type="line" smooth="no"/>
      <point x="616" y="236" type="line" smooth="no"/>
      <point x="797" y="236" type="line" smooth="no"/>
      <point x="797" y="838" type="line" smooth="no"/>
      <point x="616" y="838" type="line" smooth="no"/>
      <point x="616" y="655" type="line" smooth="no"/>
      <point x="83" y="655" type="line" smooth="no"/>
      <point x="136" y="1596" type="line" smooth="no"/>
      <point x="1229" y="1596" type="line" smooth="no"/>
      <point x="1229" y="1299" type="line" smooth="no"/>
      <point x="638" y="1299" type="line" smooth="no"/>
      <point x="604" y="998" type="line" smooth="no"/>
      <point x="672" y="1077"/>
      <point x="796" y="1105"/>
    </contour>
  </outline>
</glyph>
<glyph name="semicolon" format="1">
  <advance width="710"/>
  <unicode hex="003b"/>
  <outline>
    <contour>
      <point x="141" y="1133" type="curve" smooth="yes"/>
      <point x="141" y="1273"/>
      <point x="243" y="1343"/>
      <point x="345" y="1343" type="curve" smooth="yes"/>
      <point x="447" y="1343"/>
      <point x="549" y="1273"/>
      <point x="549" y="1133" type="curve" smooth="yes"/>
      <point x="549" y="993"/>
      <point x="447" y="923"/>
      <point x="345" y="923" type="curve" smooth="yes"/>
      <point x="243" y="923"/>
      <point x="141" y="993"/>
    </contour>
    <contour>
      <point x="141" y="323" type="curve" smooth="yes"/>
      <point x="141" y="456"/>
      <point x="243" y="523"/>
      <point x="345" y="523" type="curve" smooth="yes"/>
      <point x="489" y="523"/>
      <point x="555" y="412"/>
      <point x="555" y="283" type="curve" smooth="yes"/>
      <point x="555" y="99"/>
      <point x="429" y="-120"/>
      <point x="208" y="-120" type="curve" smooth="yes"/>
      <point x="194" y="-120"/>
      <point x="179" y="-119"/>
      <point x="164" y="-117" type="curve" smooth="no"/>
      <point x="164" y="-8" type="line" smooth="no"/>
      <point x="244" y="-7"/>
      <point x="314" y="37"/>
      <point x="320" y="114" type="curve" smooth="no"/>
      <point x="227" y="124"/>
      <point x="141" y="194"/>
    </contour>
  </outline>
</glyph>
<glyph name="less" format="1">
  <advance width="1036"/>
  <unicode hex="003c"/>
  <outline>
    <contour>
      <point x="75" y="1098" type="line" smooth="no"/>
      <point x="951" y="1597" type="line" smooth="no"/>
      <point x="951" y="1092" type="line" smooth="no"/>
      <point x="350" y="797" type="line" smooth="no"/>
      <point x="951" y="504" type="line" smooth="no"/>
      <point x="951" y="0" type="line" smooth="no"/>
      <point x="75" y="489" type="line" smooth="no"/>
    </contour>
  </outline>
</glyph>
<glyph name="equal" format="1">
  <advance width="1008"/>
  <unicode hex="003d"/>
  <outline>
    <contour>
      <point x="923" y="897" type="line" smooth="no"/>
      <point x="923" y="561" type="line" smooth="no"/>
      <point x="89" y="561" type="line" smooth="no"/>
      <point x="89" y="897" type="line" smooth="no"/>
    </contour>
    <contour>
      <point x="923" y="336" type="line" smooth="no"/>
      <point x="923" y="0" type="line" smooth="no"/>
      <point x="89" y="0" type="line" smooth="no"/>
      <point x="89" y="336" type="line" smooth="no"/>
    </contour>
  </outline>
</glyph>
<glyph name="greater" format="1">
  <advance width="1035"/>
  <unicode hex="003e"/>
  <outline>
    <contour>
      <point x="963" y="489" type="line" smooth="no"/>
      <point x="86" y="0" type="line" smooth="no"/>
      <point x="86" y="504" type="line" smooth="no"/>
      <point x="687" y="797" type="line" smooth="no"/>
      <point x="86" y="1092" type="line" smooth="no"/>
      <point x="86" y="1597" type="line" smooth="no"/>
      <point x="963" y="1098" type="line" smooth="no"/>
    </contour>
  </outline>
</glyph>
<glyph name="at" format="1">
  <advance width="2198"/>
  <unicode hex="0040"/>
  <outline>
    <contour>
      <point x="1081" y="641" type="line" smooth="no"/>
      <point x="1081" y="336" type="line" smooth="no"/>
      <point x="1174" y="336" type="line" smooth="no"/>
      <point x="1174" y="641" type="line" smooth="no"/>
    </contour>
    <contour>
      <point x="1553" y="88" type="curve" smooth="no"/>
      <point x="1388" y="91"/>
      <point x="1263" y="139"/>
      <point x="1202" y="239" type="curve" smooth="no"/>
      <point x="1149" y="173"/>
      <point x="1069" y="113"/>
      <point x="950" y="113" type="curve" smooth="yes"/>
      <point x="733" y="113"/>
      <point x="620" y="199"/>
      <point x="613" y="405" type="curve" smooth="yes"/>
      <point x="612" y="435"/>
      <point x="612" y="464"/>
      <point x="612" y="493" type="curve" smooth="yes"/>
      <point x="612" y="732"/>
      <point x="708" y="836"/>
      <point x="950" y="836" type="curve" smooth="yes"/>
      <point x="1049" y="836"/>
      <point x="1122" y="822"/>
      <point x="1175" y="788" type="curve" smooth="no"/>
      <point x="1175" y="1022" type="line" smooth="no"/>
      <point x="1116" y="1022" type="line" smooth="no"/>
      <point x="1116" y="887" type="line" smooth="no"/>
      <point x="664" y="887" type="line" smooth="no"/>
      <point x="664" y="910"/>
      <point x="663" y="933"/>
      <point x="663" y="956" type="curve" smooth="yes"/>
      <point x="663" y="1204"/>
      <point x="858" y="1248"/>
      <point x="1138" y="1248" type="curve" smooth="yes"/>
      <point x="1496" y="1248"/>
      <point x="1607" y="1146"/>
      <point x="1607" y="837" type="curve" smooth="yes"/>
      <point x="1607" y="330" type="line" smooth="no"/>
      <point x="1777" y="330" type="line" smooth="no"/>
      <point x="1777" y="832" type="line" smooth="yes"/>
      <point x="1777" y="1339"/>
      <point x="1587" y="1424"/>
      <point x="1152" y="1424" type="curve" smooth="yes"/>
      <point x="565" y="1424"/>
      <point x="428" y="1204"/>
      <point x="428" y="692" type="curve" smooth="yes"/>
      <point x="428" y="59"/>
      <point x="589" y="-58"/>
      <point x="1222" y="-58" type="curve" smooth="yes"/>
      <point x="1322" y="-58"/>
      <point x="1443" y="-40"/>
      <point x="1704" y="22" type="curve" smooth="no"/>
      <point x="1762" y="-233" type="line" smooth="no"/>
      <point x="1630" y="-320"/>
      <point x="1446" y="-393"/>
      <point x="1240" y="-393" type="curve" smooth="yes"/>
      <point x="425" y="-393"/>
      <point x="74" y="-177"/>
      <point x="74" y="687" type="curve" smooth="yes"/>
      <point x="74" y="1495"/>
      <point x="440" y="1741"/>
      <point x="1148" y="1741" type="curve" smooth="yes"/>
      <point x="1840" y="1741"/>
      <point x="2133" y="1508"/>
      <point x="2133" y="878" type="curve" smooth="yes"/>
      <point x="2133" y="409"/>
      <point x="2046" y="88"/>
    </contour>
  </outline>
</glyph>
<glyph name="C" format="1">
  <advance width="1519"/>
  <unicode hex="0043"/>
  <outline>
    <contour>
      <point x="858" y="1356" type="line" smooth="no"/>
      <point x="685" y="1356" type="line" smooth="no"/>
      <point x="685" y="233" type="line" smooth="no"/>
      <point x="858" y="233" type="line" smooth="no"/>
      <point x="858" y="614" type="line" smooth="no"/>
      <point x="1462" y="614" type="line" smooth="no"/>
      <point x="1462" y="369" type="line" smooth="yes"/>
      <point x="1462" y="-6"/>
      <point x="1080" y="-40"/>
      <point x="776" y="-40" type="curve" smooth="yes"/>
      <point x="501" y="-40"/>
      <point x="80" y="-9"/>
      <point x="80" y="370" type="curve" smooth="yes"/>
      <point x="80" y="1226" type="line" smooth="yes"/>
      <point x="80" y="1598"/>
      <point x="473" y="1636"/>
      <point x="773" y="1636" type="curve" smooth="yes"/>
      <point x="1088" y="1636"/>
      <point x="1462" y="1606"/>
      <point x="1462" y="1227" type="curve" smooth="yes"/>
      <point x="1462" y="979" type="line" smooth="no"/>
      <point x="858" y="979" type="line" smooth="no"/>
    </contour>
  </outline>
</glyph>
<glyph name="D" format="1">
  <advance width="1554"/>
  <unicode hex="0044"/>
  <outline>
    <contour>
      <point x="1474" y="1204" type="curve" smooth="yes"/>
      <point x="1474" y="393" type="line" smooth="yes"/>
      <point x="1474" y="26"/>
      <point x="1159" y="0"/>
      <point x="848" y="0" type="curve" smooth="yes"/>
      <point x="92" y="0" type="line" smooth="no"/>
      <point x="92" y="1595" type="line" smooth="no"/>
      <point x="848" y="1595" type="line" smooth="yes"/>
      <point x="1164" y="1595"/>
      <point x="1474" y="1559"/>
    </contour>
    <contour>
      <point x="697" y="235" type="line" smooth="no"/>
      <point x="870" y="235" type="line" smooth="no"/>
      <point x="870" y="1358" type="line" smooth="no"/>
      <point x="697" y="1358" type="line" smooth="no"/>
    </contour>
  </outline>
</glyph>
<glyph name="E" format="1">
  <advance width="1096"/>
  <unicode hex="0045"/>
  <outline>
    <contour>
      <point x="1037" y="1595" type="line" smooth="no"/>
      <point x="1037" y="1346" type="line" smooth="no"/>
      <point x="696" y="1346" type="line" smooth="no"/>
      <point x="696" y="961" type="line" smooth="no"/>
      <point x="1014" y="961" type="line" smooth="no"/>
      <point x="1014" y="711" type="line" smooth="no"/>
      <point x="696" y="711" type="line" smooth="no"/>
      <point x="696" y="251" type="line" smooth="no"/>
      <point x="1037" y="251" type="line" smooth="no"/>
      <point x="1037" y="0" type="line" smooth="no"/>
      <point x="92" y="0" type="line" smooth="no"/>
      <point x="92" y="1595" type="line" smooth="no"/>
    </contour>
  </outline>
</glyph>
<glyph name="G" format="1">
  <advance width="1540"/>
  <unicode hex="0047"/>
  <outline>
    <contour>
      <point x="901" y="124" type="line" smooth="no"/>
      <point x="839" y="23"/>
      <point x="724" y="-39"/>
      <point x="550" y="-39" type="curve" smooth="yes"/>
      <point x="294" y="-39"/>
      <point x="80" y="83"/>
      <point x="80" y="359" type="curve" smooth="yes"/>
      <point x="80" y="1228" type="line" smooth="yes"/>
      <point x="80" y="1602"/>
      <point x="469" y="1636"/>
      <point x="772" y="1636" type="curve" smooth="yes"/>
      <point x="1036" y="1636"/>
      <point x="1462" y="1593"/>
      <point x="1462" y="1227" type="curve" smooth="yes"/>
      <point x="1462" y="979" type="line" smooth="no"/>
      <point x="857" y="979" type="line" smooth="no"/>
      <point x="857" y="1358" type="line" smooth="no"/>
      <point x="684" y="1358" type="line" smooth="no"/>
      <point x="684" y="235" type="line" smooth="no"/>
      <point x="857" y="235" type="line" smooth="no"/>
      <point x="857" y="538" type="line" smooth="no"/>
      <point x="772" y="538" type="line" smooth="no"/>
      <point x="772" y="769" type="line" smooth="no"/>
      <point x="1462" y="769" type="line" smooth="no"/>
      <point x="1462" y="0" type="line" smooth="no"/>
      <point x="975" y="0" type="line" smooth="no"/>
    </contour>
  </outline>
</glyph>
<glyph name="H" format="1">
  <advance width="1585"/>
  <unicode hex="0048"/>
  <outline>
    <contour>
      <point x="1493" y="1595" type="line" smooth="no"/>
      <point x="1493" y="0" type="line" smooth="no"/>
      <point x="889" y="0" type="line" smooth="no"/>
      <point x="889" y="688" type="line" smooth="no"/>
      <point x="696" y="688" type="line" smooth="no"/>
      <point x="696" y="0" type="line" smooth="no"/>
      <point x="92" y="0" type="line" smooth="no"/>
      <point x="92" y="1595" type="line" smooth="no"/>
      <point x="696" y="1595" type="line" smooth="no"/>
      <point x="696" y="908" type="line" smooth="no"/>
      <point x="889" y="908" type="line" smooth="no"/>
      <point x="889" y="1595" type="line" smooth="no"/>
    </contour>
  </outline>
</glyph>
<glyph name="K" format="1">
  <advance width="1667"/>
  <unicode hex="004b"/>
  <outline>
    <contour>
      <point x="1657" y="0" type="line" smooth="no"/>
      <point x="1284" y="840" type="line" smooth="no"/>
      <point x="1609" y="1595" type="line" smooth="no"/>
      <point x="990" y="1595" type="line" smooth="no"/>
      <point x="695" y="829" type="line" smooth="no"/>
      <point x="697" y="1013" type="line" smooth="no"/>
      <point x="697" y="1595" type="line" smooth="no"/>
      <point x="92" y="1595" type="line" smooth="no"/>
      <point x="92" y="0" type="line" smooth="no"/>
      <point x="697" y="0" type="line" smooth="no"/>
      <point x="697" y="564" type="line" smooth="no"/>
      <point x="756" y="695" type="line" smooth="no"/>
      <point x="1008" y="0" type="line" smooth="no"/>
    </contour>
  </outline>
</glyph>
<glyph name="M" format="1">
  <advance width="1904"/>
  <unicode hex="004d"/>
  <outline>
    <contour>
      <point x="1324" y="958" type="line" smooth="no"/>
      <point x="1167" y="-1" type="line" smooth="no"/>
      <point x="740" y="-1" type="line" smooth="no"/>
      <point x="595" y="958" type="line" smooth="no"/>
      <point x="581" y="958" type="line" smooth="no"/>
      <point x="525" y="0" type="line" smooth="no"/>
      <point x="64" y="0" type="line" smooth="no"/>
      <point x="148" y="1595" type="line" smooth="no"/>
      <point x="818" y="1595" type="line" smooth="no"/>
      <point x="945" y="671" type="line" smooth="no"/>
      <point x="958" y="671" type="line" smooth="no"/>
      <point x="1085" y="1595" type="line" smooth="no"/>
      <point x="1756" y="1595" type="line" smooth="no"/>
      <point x="1840" y="0" type="line" smooth="no"/>
      <point x="1394" y="0" type="line" smooth="no"/>
      <point x="1338" y="958" type="line" smooth="no"/>
    </contour>
  </outline>
</glyph>
<glyph name="N" format="1">
  <advance width="1576"/>
  <unicode hex="004e"/>
  <outline>
    <contour>
      <point x="945" y="0" type="line" smooth="no"/>
      <point x="540" y="711" type="line" smooth="no"/>
      <point x="540" y="0" type="line" smooth="no"/>
      <point x="92" y="0" type="line" smooth="no"/>
      <point x="92" y="1595" type="line" smooth="no"/>
      <point x="609" y="1595" type="line" smooth="no"/>
      <point x="1040" y="834" type="line" smooth="no"/>
      <point x="1040" y="1595" type="line" smooth="no"/>
      <point x="1484" y="1595" type="line" smooth="no"/>
      <point x="1484" y="0" type="line" smooth="no"/>
    </contour>
  </outline>
</glyph>
<glyph name="O" format="1">
  <advance width="1542"/>
  <unicode hex="004f"/>
  <outline>
    <contour>
      <point x="768" y="-39" type="curve" smooth="no"/>
      <point x="448" y="-39"/>
      <point x="80" y="-11"/>
      <point x="80" y="370" type="curve" smooth="yes"/>
      <point x="80" y="1226" type="line" smooth="yes"/>
      <point x="80" y="1598"/>
      <point x="467" y="1635"/>
      <point x="768" y="1635" type="curve" smooth="yes"/>
      <point x="1040" y="1635"/>
      <point x="1462" y="1603"/>
      <point x="1462" y="1226" type="curve" smooth="yes"/>
      <point x="1462" y="370" type="line" smooth="yes"/>
      <point x="1462" y="-9"/>
      <point x="1070" y="-38"/>
    </contour>
    <contour>
      <point x="685" y="235" type="line" smooth="no"/>
      <point x="858" y="235" type="line" smooth="no"/>
      <point x="858" y="1362" type="line" smooth="no"/>
      <point x="685" y="1362" type="line" smooth="no"/>
    </contour>
  </outline>
</glyph>
<glyph name="P" format="1">
  <advance width="1530"/>
  <unicode hex="0050"/>
  <outline>
    <contour>
      <point x="695" y="628" type="line" smooth="no"/>
      <point x="868" y="628" type="line" smooth="no"/>
      <point x="868" y="1362" type="line" smooth="no"/>
      <point x="695" y="1362" type="line" smooth="no"/>
    </contour>
    <contour>
      <point x="92" y="1595" type="line" smooth="no"/>
      <point x="847" y="1595" type="line" smooth="yes"/>
      <point x="1163" y="1595"/>
      <point x="1473" y="1559"/>
      <point x="1473" y="1204" type="curve" smooth="yes"/>
      <point x="1473" y="793" type="line" smooth="yes"/>
      <point x="1473" y="428"/>
      <point x="1158" y="402"/>
      <point x="848" y="402" type="curve" smooth="yes"/>
      <point x="696" y="402" type="line" smooth="no"/>
      <point x="696" y="0" type="line" smooth="no"/>
      <point x="92" y="0" type="line" smooth="no"/>
    </contour>
  </outline>
</glyph>
<glyph name="Q" format="1">
  <advance width="1542"/>
  <unicode hex="0051"/>
  <outline>
    <contour>
      <point x="685" y="235" type="line" smooth="no"/>
      <point x="858" y="235" type="line" smooth="no"/>
      <point x="858" y="1362" type="line" smooth="no"/>
      <point x="685" y="1362" type="line" smooth="no"/>
    </contour>
    <contour>
      <point x="1030" y="-499" type="line" smooth="no"/>
      <point x="642" y="-36" type="line" smooth="no"/>
      <point x="358" y="-21"/>
      <point x="80" y="39"/>
      <point x="80" y="370" type="curve" smooth="yes"/>
      <point x="80" y="1226" type="line" smooth="yes"/>
      <point x="80" y="1598"/>
      <point x="467" y="1632"/>
      <point x="768" y="1632" type="curve" smooth="yes"/>
      <point x="1040" y="1632"/>
      <point x="1462" y="1603"/>
      <point x="1462" y="1226" type="curve" smooth="yes"/>
      <point x="1462" y="370" type="line" smooth="yes"/>
      <point x="1462" y="118"/>
      <point x="1265" y="30"/>
      <point x="1049" y="-12" type="curve" smooth="no"/>
      <point x="1275" y="-281" type="line" smooth="no"/>
    </contour>
  </outline>
</glyph>
<glyph name="V" format="1">
  <advance width="1494"/>
  <unicode hex="0056"/>
  <outline>
    <contour>
      <point x="745" y="412" type="line" smooth="no"/>
      <point x="756" y="412" type="line" smooth="no"/>
      <point x="894" y="1595" type="line" smooth="no"/>
      <point x="1486" y="1595" type="line" smooth="no"/>
      <point x="1168" y="0" type="line" smooth="no"/>
      <point x="326" y="0" type="line" smooth="no"/>
      <point x="8" y="1595" type="line" smooth="no"/>
      <point x="599" y="1595" type="line" smooth="no"/>
    </contour>
  </outline>
</glyph>
<glyph name="W" format="1">
  <advance width="2059"/>
  <unicode hex="0057"/>
  <outline>
    <contour>
      <point x="1396" y="624" type="line" smooth="no"/>
      <point x="1410" y="626" type="line" smooth="no"/>
      <point x="1517" y="1595" type="line" smooth="no"/>
      <point x="2028" y="1595" type="line" smooth="no"/>
      <point x="1809" y="0" type="line" smooth="no"/>
      <point x="1167" y="0" type="line" smooth="no"/>
      <point x="1020" y="927" type="line" smooth="no"/>
      <point x="1009" y="927" type="line" smooth="no"/>
      <point x="862" y="0" type="line" smooth="no"/>
      <point x="240" y="0" type="line" smooth="no"/>
      <point x="31" y="1595" type="line" smooth="no"/>
      <point x="594" y="1595" type="line" smooth="no"/>
      <point x="669" y="624" type="line" smooth="no"/>
      <point x="682" y="624" type="line" smooth="no"/>
      <point x="798" y="1595" type="line" smooth="no"/>
      <point x="1277" y="1595" type="line" smooth="no"/>
    </contour>
  </outline>
</glyph>
<glyph name="bracketleft" format="1">
  <advance width="1111"/>
  <unicode hex="005b"/>
  <outline>
    <contour>
      <point x="100" y="1819" type="line" smooth="no"/>
      <point x="1075" y="1819" type="line" smooth="no"/>
      <point x="1075" y="1578" type="line" smooth="no"/>
      <point x="734" y="1578" type="line" smooth="no"/>
      <point x="734" y="-77" type="line" smooth="no"/>
      <point x="1075" y="-77" type="line" smooth="no"/>
      <point x="1075" y="-319" type="line" smooth="no"/>
      <point x="100" y="-319" type="line" smooth="no"/>
    </contour>
  </outline>
</glyph>
<glyph name="backslash" format="1">
  <advance width="1053"/>
  <unicode hex="005c"/>
  <outline>
    <contour>
      <point x="587" y="1595" type="line" smooth="no"/>
      <point x="939" y="0" type="line" smooth="no"/>
      <point x="464" y="0" type="line" smooth="no"/>
      <point x="113" y="1595" type="line" smooth="no"/>
    </contour>
  </outline>
</glyph>
<glyph name="bracketright" format="1">
  <advance width="1108"/>
  <unicode hex="005d"/>
  <outline>
    <contour>
      <point x="1010" y="-319" type="line" smooth="no"/>
      <point x="35" y="-319" type="line" smooth="no"/>
      <point x="35" y="-77" type="line" smooth="no"/>
      <point x="376" y="-77" type="line" smooth="no"/>
      <point x="376" y="1578" type="line" smooth="no"/>
      <point x="35" y="1578" type="line" smooth="no"/>
      <point x="35" y="1819" type="line" smooth="no"/>
      <point x="1010" y="1819" type="line" smooth="no"/>
    </contour>
  </outline>
</glyph>
<glyph name="asciicircum" format="1">
  <advance width="1222"/>
  <unicode hex="005e"/>
  <outline>
    <contour>
      <point x="896" y="676" type="line" smooth="no"/>
      <point x="1179" y="61" type="line" smooth="no"/>
      <point x="698" y="61" type="line" smooth="no"/>
      <point x="610" y="381" type="line" smooth="no"/>
      <point x="526" y="61" type="line" smooth="no"/>
      <point x="46" y="61" type="line" smooth="no"/>
      <point x="318" y="676" type="line" smooth="no"/>
    </contour>
  </outline>
</glyph>
<glyph name="underscore" format="1">
  <advance width="1042"/>
  <unicode hex="005f"/>
  <outline>
    <contour>
      <point x="967" y="1" type="line" smooth="no"/>
      <point x="967" y="-435" type="line" smooth="no"/>
      <point x="78" y="-435" type="line" smooth="no"/>
      <point x="78" y="1" type="line" smooth="no"/>
    </contour>
  </outline>
</glyph>
<glyph name="c" format="1">
  <advance width="1448"/>
  <unicode hex="0063"/>
  <outline>
    <contour>
      <point x="1384" y="539" type="line" smooth="no"/>
      <point x="1385" y="352" type="line" smooth="no"/>
      <point x="1385" y="-10"/>
      <point x="1033" y="-30"/>
      <point x="731" y="-30" type="curve" smooth="yes"/>
      <point x="422" y="-30"/>
      <point x="74" y="-1"/>
      <point x="74" y="355" type="curve" smooth="yes"/>
      <point x="74" y="955" type="line" smooth="yes"/>
      <point x="74" y="1310"/>
      <point x="442" y="1327"/>
      <point x="737" y="1327" type="curve" smooth="yes"/>
      <point x="992" y="1327"/>
      <point x="1384" y="1326"/>
      <point x="1384" y="978" type="curve" smooth="yes"/>
      <point x="1384" y="787" type="line" smooth="no"/>
      <point x="813" y="787" type="line" smooth="no"/>
      <point x="813" y="1105" type="line" smooth="no"/>
      <point x="646" y="1105" type="line" smooth="no"/>
      <point x="646" y="199" type="line" smooth="no"/>
      <point x="813" y="199" type="line" smooth="no"/>
      <point x="813" y="539" type="line" smooth="no"/>
    </contour>
  </outline>
</glyph>
<glyph name="g" format="1">
  <advance width="1463"/>
  <unicode hex="0067"/>
  <outline>
    <contour>
      <point x="812" y="1104" type="line" smooth="no"/>
      <point x="645" y="1104" type="line" smooth="no"/>
      <point x="645" y="316" type="line" smooth="no"/>
      <point x="812" y="316" type="line" smooth="no"/>
    </contour>
    <contour>
      <point x="497" y="1327" type="curve" smooth="no"/>
      <point x="653" y="1326"/>
      <point x="770" y="1276"/>
      <point x="836" y="1187" type="curve" smooth="no"/>
      <point x="872" y="1299" type="line" smooth="no"/>
      <point x="1383" y="1299" type="line" smooth="no"/>
      <point x="1383" y="236" type="line" smooth="yes"/>
      <point x="1383" y="-184"/>
      <point x="1156" y="-372"/>
      <point x="664" y="-372" type="curve" smooth="yes"/>
      <point x="464" y="-372"/>
      <point x="310" y="-345"/>
      <point x="187" y="-311" type="curve" smooth="no"/>
      <point x="244" y="-20" type="line" smooth="no"/>
      <point x="327" y="-43"/>
      <point x="466" y="-59"/>
      <point x="590" y="-59" type="curve" smooth="yes"/>
      <point x="690" y="-59"/>
      <point x="780" y="-49"/>
      <point x="825" y="-22" type="curve" smooth="no"/>
      <point x="825" y="205" type="line" smooth="no"/>
      <point x="763" y="125"/>
      <point x="633" y="91"/>
      <point x="494" y="91" type="curve" smooth="yes"/>
      <point x="223" y="91"/>
      <point x="74" y="214"/>
      <point x="74" y="482" type="curve" smooth="yes"/>
      <point x="74" y="927" type="line" smooth="yes"/>
      <point x="74" y="1196"/>
      <point x="220" y="1327"/>
    </contour>
  </outline>
</glyph>
<glyph name="o" format="1">
  <advance width="1457"/>
  <unicode hex="006f"/>
  <outline>
    <contour>
      <point x="732" y="-30" type="curve" smooth="yes"/>
      <point x="414" y="-30"/>
      <point x="74" y="-12"/>
      <point x="74" y="348" type="curve" smooth="yes"/>
      <point x="74" y="953" type="line" smooth="yes"/>
      <point x="74" y="1300"/>
      <point x="436" y="1327"/>
      <point x="733" y="1327" type="curve" smooth="yes"/>
      <point x="1052" y="1327"/>
      <point x="1383" y="1296"/>
      <point x="1383" y="952" type="curve" smooth="yes"/>
      <point x="1383" y="347" type="line" smooth="yes"/>
      <point x="1383" y="-22"/>
      <point x="1037" y="-30"/>
    </contour>
    <contour>
      <point x="645" y="228" type="line" smooth="no"/>
      <point x="811" y="228" type="line" smooth="no"/>
      <point x="811" y="1105" type="line" smooth="no"/>
      <point x="645" y="1105" type="line" smooth="no"/>
    </contour>
  </outline>
</glyph>
<glyph name="q" format="1">
  <advance width="1459"/>
  <unicode hex="0071"/>
  <outline>
    <contour>
      <point x="817" y="1105" type="line" smooth="no"/>
      <point x="652" y="1105" type="line" smooth="no"/>
      <point x="652" y="199" type="line" smooth="no"/>
      <point x="817" y="199" type="line" smooth="no"/>
    </contour>
    <contour>
      <point x="502" y="1327" type="curve" smooth="yes"/>
      <point x="641" y="1327"/>
      <point x="773" y="1271"/>
      <point x="831" y="1188" type="curve" smooth="no"/>
      <point x="869" y="1300" type="line" smooth="no"/>
      <point x="1381" y="1300" type="line" smooth="no"/>
      <point x="1381" y="-410" type="line" smooth="no"/>
      <point x="832" y="-410" type="line" smooth="no"/>
      <point x="832" y="87" type="line" smooth="no"/>
      <point x="764" y="9"/>
      <point x="644" y="-30"/>
      <point x="501" y="-30" type="curve" smooth="yes"/>
      <point x="227" y="-30"/>
      <point x="86" y="99"/>
      <point x="86" y="365" type="curve" smooth="yes"/>
      <point x="86" y="926" type="line" smooth="no"/>
      <point x="85" y="926" type="line" smooth="no"/>
      <point x="85" y="1194"/>
      <point x="226" y="1327"/>
    </contour>
  </outline>
</glyph>
<glyph name="v" format="1">
  <advance width="1335"/>
  <unicode hex="0076"/>
  <outline>
    <contour>
      <point x="676" y="356" type="line" smooth="no"/>
      <point x="689" y="356" type="line" smooth="no"/>
      <point x="793" y="1300" type="line" smooth="no"/>
      <point x="1344" y="1300" type="line" smooth="no"/>
      <point x="1065" y="0" type="line" smooth="no"/>
      <point x="271" y="0" type="line" smooth="no"/>
      <point x="-9" y="1300" type="line" smooth="no"/>
      <point x="542" y="1300" type="line" smooth="no"/>
    </contour>
  </outline>
</glyph>
<glyph name="y" format="1">
  <advance width="1337"/>
  <unicode hex="0079"/>
  <outline>
    <contour>
      <point x="488" y="-411" type="curve" smooth="yes"/>
      <point x="742" y="-411"/>
      <point x="944" y="-324"/>
      <point x="1028" y="-3" type="curve" smooth="no"/>
      <point x="1338" y="1300" type="line" smooth="no"/>
      <point x="804" y="1300" type="line" smooth="no"/>
      <point x="700" y="376" type="line" smooth="no"/>
      <point x="692" y="376" type="line" smooth="no"/>
      <point x="522" y="1300" type="line" smooth="no"/>
      <point x="-5" y="1300" type="line" smooth="no"/>
      <point x="366" y="41" type="line" smooth="yes"/>
      <point x="372" y="21"/>
      <point x="375" y="4"/>
      <point x="375" y="-10" type="curve" smooth="yes"/>
      <point x="375" y="-59"/>
      <point x="342" y="-77"/>
      <point x="287" y="-77" type="curve" smooth="yes"/>
      <point x="231" y="-77"/>
      <point x="153" y="-58"/>
      <point x="65" y="-33" type="curve" smooth="no"/>
      <point x="22" y="-344" type="line" smooth="no"/>
      <point x="150" y="-381"/>
      <point x="370" y="-411"/>
    </contour>
  </outline>
</glyph>
<glyph name="asciitilde" format="1">
  <advance width="1424"/>
  <unicode hex="007e"/>
  <outline>
    <contour>
      <point x="1057" y="642" type="line" smooth="no"/>
      <point x="1057" y="728"/>
      <point x="1028" y="806"/>
      <point x="950" y="806" type="curve" smooth="yes"/>
      <point x="784" y="806"/>
      <point x="715" y="616"/>
      <point x="480" y="616" type="curve" smooth="yes"/>
      <point x="135" y="616"/>
      <point x="73" y="885"/>
      <point x="73" y="1176" type="curve" smooth="no"/>
      <point x="369" y="1176" type="line" smooth="no"/>
      <point x="369" y="1089"/>
      <point x="394" y="1008"/>
      <point x="481" y="1008" type="curve" smooth="yes"/>
      <point x="670" y="1008"/>
      <point x="754" y="1201"/>
      <point x="1008" y="1201" type="curve" smooth="yes"/>
      <point x="1312" y="1201"/>
      <point x="1354" y="992"/>
      <point x="1354" y="642" type="curve" smooth="no"/>
    </contour>
  </outline>
</glyph>
<glyph name="exclamdown" format="1">
  <advance width="719"/>
  <unicode hex="00a1"/>
  <outline>
    <contour>
      <point x="151" y="1392" type="curve" smooth="no"/>
      <point x="152" y="1391" type="line" smooth="no"/>
      <point x="152" y="1551"/>
      <point x="252" y="1627"/>
      <point x="353" y="1627" type="curve" smooth="yes"/>
      <point x="456" y="1627"/>
      <point x="561" y="1548"/>
      <point x="561" y="1398" type="curve" smooth="yes"/>
      <point x="561" y="1257"/>
      <point x="458" y="1187"/>
      <point x="355" y="1187" type="curve" smooth="yes"/>
      <point x="253" y="1187"/>
      <point x="151" y="1256"/>
    </contour>
    <contour>
      <point x="311" y="989" type="curve" smooth="no"/>
      <point x="310" y="989" type="line" smooth="no"/>
      <point x="321" y="1035"/>
      <point x="346" y="1057"/>
      <point x="371" y="1057" type="curve" smooth="yes"/>
      <point x="396" y="1057"/>
      <point x="421" y="1034"/>
      <point x="431" y="989" type="curve" smooth="yes"/>
      <point x="495" y="722"/>
      <point x="629" y="343"/>
      <point x="629" y="185" type="curve" smooth="yes"/>
      <point x="629" y="40"/>
      <point x="498" y="-35"/>
      <point x="369" y="-35" type="curve" smooth="yes"/>
      <point x="243" y="-35"/>
      <point x="118" y="36"/>
      <point x="118" y="183" type="curve" smooth="yes"/>
      <point x="118" y="337"/>
      <point x="248" y="716"/>
    </contour>
  </outline>
</glyph>
<glyph name="cent" format="1">
  <advance width="1462"/>
  <unicode hex="00a2"/>
  <outline>
    <contour>
      <point x="598" y="1119" type="line" smooth="no"/>
      <point x="598" y="373" type="line" smooth="no"/>
      <point x="706" y="373" type="line" smooth="no"/>
      <point x="706" y="1119" type="line" smooth="no"/>
    </contour>
    <contour>
      <point x="1396" y="633" type="line" smooth="no"/>
      <point x="1396" y="523" type="line" smooth="yes"/>
      <point x="1396" y="180"/>
      <point x="1077" y="149"/>
      <point x="785" y="147" type="curve" smooth="no"/>
      <point x="785" y="-74" type="line" smooth="no"/>
      <point x="706" y="-74" type="line" smooth="no"/>
      <point x="706" y="147" type="line" smooth="no"/>
      <point x="407" y="149"/>
      <point x="86" y="187"/>
      <point x="86" y="529" type="curve" smooth="yes"/>
      <point x="86" y="969" type="line" smooth="yes"/>
      <point x="86" y="1310"/>
      <point x="425" y="1341"/>
      <point x="706" y="1343" type="curve" smooth="no"/>
      <point x="706" y="1578" type="line" smooth="no"/>
      <point x="785" y="1578" type="line" smooth="no"/>
      <point x="785" y="1343" type="line" smooth="no"/>
      <point x="1026" y="1340"/>
      <point x="1396" y="1309"/>
      <point x="1396" y="992" type="curve" smooth="yes"/>
      <point x="1396" y="881" type="line" smooth="no"/>
      <point x="885" y="881" type="line" smooth="no"/>
      <point x="885" y="1119" type="line" smooth="no"/>
      <point x="785" y="1119" type="line" smooth="no"/>
      <point x="785" y="373" type="line" smooth="no"/>
      <point x="885" y="373" type="line" smooth="no"/>
      <point x="885" y="633" type="line" smooth="no"/>
    </contour>
  </outline>
</glyph>
<glyph name="sterling" format="1">
  <advance width="1598"/>
  <unicode hex="00a3"/>
  <outline>
    <contour>
      <point x="74" y="265" type="line" smooth="no"/>
      <point x="76" y="266" type="line" smooth="no"/>
      <point x="147" y="275"/>
      <point x="234" y="297"/>
      <point x="234" y="376" type="curve" smooth="yes"/>
      <point x="234" y="719" type="line" smooth="no"/>
      <point x="76" y="719" type="line" smooth="no"/>
      <point x="76" y="941" type="line" smooth="no"/>
      <point x="234" y="941" type="line" smooth="no"/>
      <point x="234" y="1065" type="line" smooth="yes"/>
      <point x="234" y="1260"/>
      <point x="248" y="1417"/>
      <point x="346" y="1511" type="curve" smooth="yes"/>
      <point x="458" y="1618"/>
      <point x="664" y="1632"/>
      <point x="893" y="1632" type="curve" smooth="yes"/>
      <point x="1189" y="1632"/>
      <point x="1483" y="1593"/>
      <point x="1504" y="1331" type="curve" smooth="yes"/>
      <point x="1506" y="1302"/>
      <point x="1507" y="1274"/>
      <point x="1507" y="1247" type="curve" smooth="yes"/>
      <point x="1507" y="1070" type="line" smooth="no"/>
      <point x="926" y="1070" type="line" smooth="no"/>
      <point x="926" y="1364" type="line" smooth="no"/>
      <point x="819" y="1364" type="line" smooth="no"/>
      <point x="819" y="940" type="line" smooth="no"/>
      <point x="1246" y="940" type="line" smooth="no"/>
      <point x="1246" y="718" type="line" smooth="no"/>
      <point x="819" y="718" type="line" smooth="no"/>
      <point x="819" y="268" type="line" smooth="no"/>
      <point x="947" y="268" type="line" smooth="no"/>
      <point x="947" y="562" type="line" smooth="no"/>
      <point x="1528" y="562" type="line" smooth="no"/>
      <point x="1528" y="385" type="line" smooth="yes"/>
      <point x="1528" y="228"/>
      <point x="1498" y="126"/>
      <point x="1399" y="65" type="curve" smooth="yes"/>
      <point x="1325" y="19"/>
      <point x="1225" y="0"/>
      <point x="1097" y="0" type="curve" smooth="yes"/>
      <point x="971" y="0"/>
      <point x="877" y="29"/>
      <point x="819" y="91" type="curve" smooth="yes"/>
      <point x="805" y="106"/>
      <point x="792" y="119"/>
      <point x="781" y="130" type="curve" smooth="no"/>
      <point x="725" y="71"/>
      <point x="676" y="33"/>
      <point x="579" y="16" type="curve" smooth="yes"/>
      <point x="497" y="2"/>
      <point x="407" y="1"/>
      <point x="301" y="0" type="curve" smooth="no"/>
      <point x="74" y="0" type="line" smooth="no"/>
    </contour>
  </outline>
</glyph>
<glyph name="yen" format="1">
  <advance width="1571"/>
  <unicode hex="00a5"/>
  <outline>
    <contour>
      <point x="746" y="1021" type="line" smooth="no"/>
      <point x="763" y="815" type="line" smooth="no"/>
      <point x="792" y="815" type="line" smooth="no"/>
      <point x="809" y="1021" type="line" smooth="no"/>
      <point x="968" y="1595" type="line" smooth="no"/>
      <point x="1524" y="1595" type="line" smooth="no"/>
      <point x="1190" y="728" type="line" smooth="no"/>
      <point x="1425" y="728" type="line" smooth="no"/>
      <point x="1425" y="585" type="line" smooth="no"/>
      <point x="1134" y="585" type="line" smooth="no"/>
      <point x="1082" y="449" type="line" smooth="no"/>
      <point x="1082" y="442" type="line" smooth="no"/>
      <point x="1425" y="442" type="line" smooth="no"/>
      <point x="1425" y="299" type="line" smooth="no"/>
      <point x="1082" y="299" type="line" smooth="no"/>
      <point x="1082" y="0" type="line" smooth="no"/>
      <point x="477" y="0" type="line" smooth="no"/>
      <point x="477" y="299" type="line" smooth="no"/>
      <point x="127" y="299" type="line" smooth="no"/>
      <point x="127" y="442" type="line" smooth="no"/>
      <point x="477" y="442" type="line" smooth="no"/>
      <point x="477" y="459" type="line" smooth="no"/>
      <point x="428" y="585" type="line" smooth="no"/>
      <point x="127" y="585" type="line" smooth="no"/>
      <point x="127" y="728" type="line" smooth="no"/>
      <point x="372" y="728" type="line" smooth="no"/>
      <point x="32" y="1595" type="line" smooth="no"/>
      <point x="592" y="1595" type="line" smooth="no"/>
    </contour>
  </outline>
</glyph>
<glyph name="brokenbar" format="1">
  <advance width="831"/>
  <unicode hex="00a6"/>
  <outline>
    <contour>
      <point x="702" y="1708" type="line" smooth="no"/>
      <point x="702" y="797" type="line" smooth="no"/>
      <point x="131" y="797" type="line" smooth="no"/>
      <point x="131" y="1708" type="line" smooth="no"/>
    </contour>
    <contour>
      <point x="702" y="656" type="line" smooth="no"/>
      <point x="702" y="-255" type="line" smooth="no"/>
      <point x="131" y="-255" type="line" smooth="no"/>
      <point x="131" y="656" type="line" smooth="no"/>
    </contour>
  </outline>
</glyph>
<glyph name="section" format="1">
  <advance width="1362"/>
  <unicode hex="00a7"/>
  <outline>
    <contour>
      <point x="717" y="748" type="line" smooth="no"/>
      <point x="717" y="971" type="line" smooth="no"/>
      <point x="648" y="971" type="line" smooth="no"/>
      <point x="648" y="748" type="line" smooth="no"/>
    </contour>
    <contour>
      <point x="265" y="1046" type="curve" smooth="no"/>
      <point x="165" y="1093"/>
      <point x="88" y="1179"/>
      <point x="88" y="1329" type="curve" smooth="yes"/>
      <point x="88" y="1727"/>
      <point x="364" y="1770"/>
      <point x="702" y="1770" type="curve" smooth="yes"/>
      <point x="964" y="1770"/>
      <point x="1283" y="1749"/>
      <point x="1283" y="1411" type="curve" smooth="yes"/>
      <point x="1283" y="1376"/>
      <point x="1282" y="1342"/>
      <point x="1282" y="1306" type="curve" smooth="no"/>
      <point x="730" y="1306" type="line" smooth="no"/>
      <point x="730" y="1497" type="line" smooth="no"/>
      <point x="657" y="1497" type="line" smooth="no"/>
      <point x="657" y="1248" type="line" smooth="no"/>
      <point x="675" y="1230"/>
      <point x="736" y="1233"/>
      <point x="776" y="1231" type="curve" smooth="yes"/>
      <point x="965" y="1223"/>
      <point x="1294" y="1212"/>
      <point x="1294" y="949" type="curve" smooth="yes"/>
      <point x="1294" y="820"/>
      <point x="1228" y="745"/>
      <point x="1142" y="705" type="curve" smooth="yes"/>
      <point x="1123" y="696"/>
      <point x="1100" y="685"/>
      <point x="1083" y="685" type="curve" smooth="no"/>
      <point x="1099" y="677"/>
      <point x="1118" y="672"/>
      <point x="1137" y="660" type="curve" smooth="yes"/>
      <point x="1217" y="612"/>
      <point x="1278" y="532"/>
      <point x="1278" y="401" type="curve" smooth="yes"/>
      <point x="1278" y="3"/>
      <point x="1002" y="-40"/>
      <point x="664" y="-40" type="curve" smooth="yes"/>
      <point x="401" y="-40"/>
      <point x="85" y="-18"/>
      <point x="85" y="321" type="curve" smooth="yes"/>
      <point x="85" y="356"/>
      <point x="86" y="390"/>
      <point x="86" y="426" type="curve" smooth="no"/>
      <point x="637" y="426" type="line" smooth="no"/>
      <point x="637" y="235" type="line" smooth="no"/>
      <point x="710" y="235" type="line" smooth="no"/>
      <point x="710" y="487" type="line" smooth="no"/>
      <point x="455" y="487" type="line" smooth="yes"/>
      <point x="231" y="487"/>
      <point x="73" y="555"/>
      <point x="73" y="783" type="curve" smooth="yes"/>
      <point x="73" y="919"/>
      <point x="150" y="1003"/>
      <point x="248" y="1039" type="curve" smooth="yes"/>
      <point x="258" y="1043"/>
      <point x="264" y="1045"/>
    </contour>
  </outline>
</glyph>
<glyph name="copyright" format="1">
  <advance width="1861"/>
  <unicode hex="00a9"/>
  <outline>
    <contour>
      <point x="835" y="432" type="line" smooth="no"/>
      <point x="1034" y="432" type="line" smooth="no"/>
      <point x="1034" y="749" type="line" smooth="no"/>
      <point x="1311" y="749" type="line" smooth="no"/>
      <point x="1311" y="542" type="line" smooth="yes"/>
      <point x="1311" y="312"/>
      <point x="1161" y="272"/>
      <point x="916" y="272" type="curve" smooth="yes"/>
      <point x="701" y="272"/>
      <point x="555" y="315"/>
      <point x="555" y="547" type="curve" smooth="yes"/>
      <point x="555" y="1107" type="line" smooth="yes"/>
      <point x="555" y="1334"/>
      <point x="687" y="1381"/>
      <point x="916" y="1381" type="curve" smooth="yes"/>
      <point x="1113" y="1381"/>
      <point x="1311" y="1366"/>
      <point x="1311" y="1111" type="curve" smooth="yes"/>
      <point x="1311" y="913" type="line" smooth="no"/>
      <point x="1034" y="913" type="line" smooth="no"/>
      <point x="1034" y="1222" type="line" smooth="no"/>
      <point x="835" y="1222" type="line" smooth="no"/>
    </contour>
    <contour>
      <point x="323" y="1114" type="curve" smooth="yes"/>
      <point x="323" y="535" type="line" smooth="yes"/>
      <point x="323" y="169"/>
      <point x="523" y="68"/>
      <point x="932" y="68" type="curve" smooth="yes"/>
      <point x="1300" y="68"/>
      <point x="1541" y="156"/>
      <point x="1541" y="482" type="curve" smooth="yes"/>
      <point x="1541" y="1165" type="line" smooth="yes"/>
      <point x="1541" y="1500"/>
      <point x="1275" y="1573"/>
      <point x="932" y="1573" type="curve" smooth="yes"/>
      <point x="520" y="1573"/>
      <point x="323" y="1471"/>
    </contour>
    <contour>
      <point x="932" y="-101" type="curve" smooth="yes"/>
      <point x="421" y="-101"/>
      <point x="84" y="42"/>
      <point x="84" y="539" type="curve" smooth="yes"/>
      <point x="84" y="1116" type="line" smooth="yes"/>
      <point x="84" y="1638"/>
      <point x="490" y="1749"/>
      <point x="932" y="1749" type="curve" smooth="yes"/>
      <point x="1441" y="1749"/>
      <point x="1780" y="1610"/>
      <point x="1780" y="1116" type="curve" smooth="yes"/>
      <point x="1780" y="539" type="line" smooth="yes"/>
      <point x="1780" y="14"/>
      <point x="1377" y="-101"/>
    </contour>
  </outline>
</glyph>
<glyph name="logicalnot" format="1">
  <advance width="1269"/>
  <unicode hex="00ac"/>
  <outline>
    <contour>
      <point x="1179" y="300" type="line" smooth="no"/>
      <point x="950" y="300" type="line" smooth="no"/>
      <point x="950" y="791" type="line" smooth="no"/>
      <point x="83" y="791" type="line" smooth="no"/>
      <point x="83" y="1105" type="line" smooth="no"/>
      <point x="1179" y="1105" type="line" smooth="no"/>
    </contour>
  </outline>
</glyph>
<glyph name="registered" format="1">
  <advance width="1861"/>
  <unicode hex="00ae"/>
  <outline>
    <contour>
      <point x="895" y="915" type="line" smooth="no"/>
      <point x="978" y="915" type="line" smooth="no"/>
      <point x="978" y="1274" type="line" smooth="no"/>
      <point x="895" y="1274" type="line" smooth="no"/>
    </contour>
    <contour>
      <point x="1116" y="835" type="line" smooth="no"/>
      <point x="1227" y="828" type="line" smooth="yes"/>
      <point x="1311" y="822"/>
      <point x="1357" y="751"/>
      <point x="1357" y="643" type="curve" smooth="yes"/>
      <point x="1357" y="279" type="line" smooth="no"/>
      <point x="978" y="279" type="line" smooth="no"/>
      <point x="978" y="756" type="line" smooth="no"/>
      <point x="895" y="756" type="line" smooth="no"/>
      <point x="895" y="279" type="line" smooth="no"/>
      <point x="506" y="279" type="line" smooth="no"/>
      <point x="506" y="1434" type="line" smooth="no"/>
      <point x="1016" y="1434" type="line" smooth="yes"/>
      <point x="1171" y="1434"/>
      <point x="1361" y="1423"/>
      <point x="1361" y="1164" type="curve" smooth="yes"/>
      <point x="1361" y="1071" type="line" smooth="yes"/>
      <point x="1361" y="945"/>
      <point x="1308" y="871"/>
      <point x="1226" y="864" type="curve" smooth="yes"/>
      <point x="1116" y="854" type="line" smooth="no"/>
    </contour>
    <contour>
      <point x="323" y="1114" type="curve" smooth="yes"/>
      <point x="323" y="535" type="line" smooth="yes"/>
      <point x="323" y="169"/>
      <point x="523" y="68"/>
      <point x="932" y="68" type="curve" smooth="yes"/>
      <point x="1300" y="68"/>
      <point x="1541" y="156"/>
      <point x="1541" y="482" type="curve" smooth="yes"/>
      <point x="1541" y="1165" type="line" smooth="yes"/>
      <point x="1541" y="1500"/>
      <point x="1275" y="1573"/>
      <point x="932" y="1573" type="curve" smooth="yes"/>
      <point x="520" y="1573"/>
      <point x="323" y="1471"/>
    </contour>
    <contour>
      <point x="932" y="-101" type="curve" smooth="yes"/>
      <point x="421" y="-101"/>
      <point x="84" y="42"/>
      <point x="84" y="539" type="curve" smooth="yes"/>
      <point x="84" y="1116" type="line" smooth="yes"/>
      <point x="84" y="1638"/>
      <point x="490" y="1749"/>
      <point x="932" y="1749" type="curve" smooth="yes"/>
      <point x="1441" y="1749"/>
      <point x="1780" y="1610"/>
      <point x="1780" y="1116" type="curve" smooth="yes"/>
      <point x="1780" y="539" type="line" smooth="yes"/>
      <point x="1780" y="14"/>
      <point x="1377" y="-101"/>
    </contour>
  </outline>
</glyph>
<glyph name="degree" format="1">
  <advance width="812"/>
  <unicode hex="00b0"/>
  <outline>
    <contour>
      <point x="545" y="1371" type="curve" smooth="yes"/>
      <point x="545" y="1459"/>
      <point x="487" y="1520"/>
      <point x="404" y="1520" type="curve" smooth="yes"/>
      <point x="321" y="1520"/>
      <point x="263" y="1459"/>
      <point x="263" y="1371" type="curve" smooth="yes"/>
      <point x="263" y="1283"/>
      <point x="321" y="1222"/>
      <point x="404" y="1222" type="curve" smooth="yes"/>
      <point x="487" y="1222"/>
      <point x="545" y="1283"/>
    </contour>
    <contour>
      <point x="73" y="1371" type="curve" smooth="yes"/>
      <point x="73" y="1524"/>
      <point x="196" y="1672"/>
      <point x="404" y="1672" type="curve" smooth="yes"/>
      <point x="612" y="1672"/>
      <point x="735" y="1524"/>
      <point x="735" y="1371" type="curve" smooth="yes"/>
      <point x="735" y="1218"/>
      <point x="612" y="1070"/>
      <point x="404" y="1070" type="curve" smooth="yes"/>
      <point x="196" y="1070"/>
      <point x="73" y="1218"/>
    </contour>
  </outline>
</glyph>
<glyph name="uni00B2" format="1">
  <advance width="1090"/>
  <unicode hex="00b2"/>
  <outline>
    <contour>
      <point x="189" y="836" type="line" smooth="no"/>
      <point x="189" y="850"/>
      <point x="188" y="864"/>
      <point x="188" y="878" type="curve" smooth="yes"/>
      <point x="188" y="1148"/>
      <point x="367" y="1209"/>
      <point x="610" y="1209" type="curve" smooth="yes"/>
      <point x="872" y="1209"/>
      <point x="1026" y="1142"/>
      <point x="1026" y="876" type="curve" smooth="yes"/>
      <point x="1026" y="634"/>
      <point x="868" y="548"/>
      <point x="703" y="474" type="curve" smooth="yes"/>
      <point x="633" y="443"/>
      <point x="553" y="404"/>
      <point x="553" y="332" type="curve" smooth="no"/>
      <point x="986" y="332" type="line" smooth="no"/>
      <point x="986" y="134" type="line" smooth="no"/>
      <point x="189" y="134" type="line" smooth="no"/>
      <point x="189" y="313" type="line" smooth="yes"/>
      <point x="189" y="575"/>
      <point x="323" y="690"/>
      <point x="517" y="768" type="curve" smooth="yes"/>
      <point x="579" y="793"/>
      <point x="653" y="823"/>
      <point x="653" y="877" type="curve" smooth="yes"/>
      <point x="653" y="1030" type="line" smooth="no"/>
      <point x="553" y="1030" type="line" smooth="no"/>
      <point x="553" y="836" type="line" smooth="no"/>
    </contour>
  </outline>
</glyph>
<glyph name="paragraph" format="1">
  <advance width="1318"/>
  <unicode hex="00b6"/>
  <outline>
    <contour>
      <point x="591" y="659" type="line" smooth="no"/>
      <point x="258" y="659"/>
      <point x="56" y="782"/>
      <point x="56" y="1107" type="curve" smooth="yes"/>
      <point x="56" y="1516"/>
      <point x="342" y="1595"/>
      <point x="689" y="1595" type="curve" smooth="yes"/>
      <point x="1223" y="1595" type="line" smooth="no"/>
      <point x="1223" y="0" type="line" smooth="no"/>
      <point x="962" y="0" type="line" smooth="no"/>
      <point x="962" y="658" type="line" smooth="no"/>
      <point x="853" y="658" type="line" smooth="no"/>
      <point x="853" y="0" type="line" smooth="no"/>
      <point x="591" y="0" type="line" smooth="no"/>
    </contour>
  </outline>
</glyph>
<glyph name="uni00B9" format="1">
  <advance width="731"/>
  <unicode hex="00b9"/>
  <outline>
    <contour>
      <point x="115" y="1115" type="line" smooth="no"/>
      <point x="205" y="1115"/>
      <point x="285" y="1135"/>
      <point x="342" y="1170" type="curve" smooth="no"/>
      <point x="654" y="1170" type="line" smooth="no"/>
      <point x="654" y="130" type="line" smooth="no"/>
      <point x="259" y="130" type="line" smooth="no"/>
      <point x="259" y="971" type="line" smooth="no"/>
      <point x="115" y="971" type="line" smooth="no"/>
    </contour>
  </outline>
</glyph>
<glyph name="ordmasculine" format="1">
  <advance width="1334"/>
  <unicode hex="00ba"/>
  <outline>
    <contour>
      <point x="675" y="317" type="line" smooth="no"/>
      <point x="808" y="317" type="line" smooth="no"/>
      <point x="808" y="1014" type="line" smooth="no"/>
      <point x="675" y="1014" type="line" smooth="no"/>
    </contour>
    <contour>
      <point x="744" y="99" type="curve" smooth="no"/>
      <point x="490" y="99"/>
      <point x="218" y="115"/>
      <point x="218" y="413" type="curve" smooth="yes"/>
      <point x="218" y="893" type="line" smooth="yes"/>
      <point x="218" y="1185"/>
      <point x="507" y="1204"/>
      <point x="745" y="1204" type="curve" smooth="yes"/>
      <point x="996" y="1204"/>
      <point x="1265" y="1180"/>
      <point x="1265" y="892" type="curve" smooth="yes"/>
      <point x="1265" y="412" type="line" smooth="yes"/>
      <point x="1265" y="110"/>
      <point x="990" y="102"/>
    </contour>
  </outline>
</glyph>
<glyph name="onequarter" format="1">
  <advance width="2565"/>
  <unicode hex="00bc"/>
  <outline>
    <contour>
      <point x="751" y="0" type="line" smooth="no"/>
      <point x="1103" y="1595" type="line" smooth="no"/>
      <point x="1537" y="1595" type="line" smooth="no"/>
      <point x="1186" y="0" type="line" smooth="no"/>
    </contour>
    <contour>
      <point x="31" y="1415" type="line" smooth="no"/>
      <point x="121" y="1415"/>
      <point x="201" y="1435"/>
      <point x="258" y="1470" type="curve" smooth="no"/>
      <point x="570" y="1470" type="line" smooth="no"/>
      <point x="570" y="430" type="line" smooth="no"/>
      <point x="175" y="430" type="line" smooth="no"/>
      <point x="175" y="1271" type="line" smooth="no"/>
      <point x="31" y="1271" type="line" smooth="no"/>
    </contour>
    <contour>
      <point x="2499" y="130" type="line" smooth="no"/>
      <point x="2140" y="130" type="line" smooth="no"/>
      <point x="2140" y="291" type="line" smooth="no"/>
      <point x="1624" y="291" type="line" smooth="no"/>
      <point x="1624" y="571" type="line" smooth="no"/>
      <point x="1794" y="1172" type="line" smooth="no"/>
      <point x="2179" y="1172" type="line" smooth="no"/>
      <point x="2010" y="571" type="line" smooth="no"/>
      <point x="2010" y="535" type="line" smooth="no"/>
      <point x="2140" y="535" type="line" smooth="no"/>
      <point x="2140" y="760" type="line" smooth="no"/>
      <point x="2499" y="760" type="line" smooth="no"/>
    </contour>
  </outline>
</glyph>
<glyph name="onehalf" format="1">
  <advance width="2580"/>
  <unicode hex="00bd"/>
  <outline>
    <contour>
      <point x="766" y="0" type="line" smooth="no"/>
      <point x="1118" y="1595" type="line" smooth="no"/>
      <point x="1552" y="1595" type="line" smooth="no"/>
      <point x="1201" y="0" type="line" smooth="no"/>
    </contour>
    <contour>
      <point x="31" y="1415" type="line" smooth="no"/>
      <point x="121" y="1415"/>
      <point x="201" y="1435"/>
      <point x="258" y="1470" type="curve" smooth="no"/>
      <point x="570" y="1470" type="line" smooth="no"/>
      <point x="570" y="430" type="line" smooth="no"/>
      <point x="175" y="430" type="line" smooth="no"/>
      <point x="175" y="1271" type="line" smooth="no"/>
      <point x="31" y="1271" type="line" smooth="no"/>
    </contour>
    <contour>
      <point x="1685" y="836" type="line" smooth="no"/>
      <point x="1685" y="850"/>
      <point x="1684" y="864"/>
      <point x="1684" y="878" type="curve" smooth="yes"/>
      <point x="1684" y="1148"/>
      <point x="1863" y="1209"/>
      <point x="2106" y="1209" type="curve" smooth="yes"/>
      <point x="2368" y="1209"/>
      <point x="2522" y="1142"/>
      <point x="2522" y="876" type="curve" smooth="yes"/>
      <point x="2522" y="634"/>
      <point x="2364" y="548"/>
      <point x="2199" y="474" type="curve" smooth="yes"/>
      <point x="2129" y="443"/>
      <point x="2049" y="404"/>
      <point x="2049" y="332" type="curve" smooth="no"/>
      <point x="2482" y="332" type="line" smooth="no"/>
      <point x="2482" y="134" type="line" smooth="no"/>
      <point x="1685" y="134" type="line" smooth="no"/>
      <point x="1685" y="313" type="line" smooth="yes"/>
      <point x="1685" y="575"/>
      <point x="1819" y="690"/>
      <point x="2013" y="768" type="curve" smooth="yes"/>
      <point x="2075" y="793"/>
      <point x="2149" y="823"/>
      <point x="2149" y="877" type="curve" smooth="yes"/>
      <point x="2149" y="1030" type="line" smooth="no"/>
      <point x="2049" y="1030" type="line" smooth="no"/>
      <point x="2049" y="836" type="line" smooth="no"/>
    </contour>
  </outline>
</glyph>
<glyph name="threequarters" format="1">
  <advance width="2894"/>
  <unicode hex="00be"/>
  <outline>
    <contour>
      <point x="1120" y="0" type="line" smooth="no"/>
      <point x="1472" y="1595" type="line" smooth="no"/>
      <point x="1906" y="1595" type="line" smooth="no"/>
      <point x="1555" y="0" type="line" smooth="no"/>
    </contour>
    <contour>
      <point x="995" y="1175" type="curve" smooth="yes"/>
      <point x="995" y="1067"/>
      <point x="940" y="999"/>
      <point x="857" y="963" type="curve" smooth="no"/>
      <point x="951" y="927"/>
      <point x="997" y="841"/>
      <point x="997" y="733" type="curve" smooth="yes"/>
      <point x="997" y="487"/>
      <point x="862" y="394"/>
      <point x="566" y="394" type="curve" smooth="yes"/>
      <point x="270" y="394"/>
      <point x="139" y="515"/>
      <point x="139" y="765" type="curve" smooth="yes"/>
      <point x="139" y="785"/>
      <point x="140" y="805"/>
      <point x="142" y="826" type="curve" smooth="no"/>
      <point x="508" y="826" type="line" smooth="no"/>
      <point x="508" y="576" type="line" smooth="no"/>
      <point x="621" y="576" type="line" smooth="no"/>
      <point x="621" y="889" type="line" smooth="no"/>
      <point x="450" y="889" type="line" smooth="no"/>
      <point x="450" y="1037" type="line" smooth="no"/>
      <point x="621" y="1037" type="line" smooth="no"/>
      <point x="621" y="1321" type="line" smooth="no"/>
      <point x="508" y="1321" type="line" smooth="no"/>
      <point x="508" y="1098" type="line" smooth="no"/>
      <point x="142" y="1098" type="line" smooth="no"/>
      <point x="140" y="1117"/>
      <point x="139" y="1135"/>
      <point x="139" y="1153" type="curve" smooth="yes"/>
      <point x="139" y="1416"/>
      <point x="285" y="1499"/>
      <point x="565" y="1499" type="curve" smooth="yes"/>
      <point x="835" y="1499"/>
      <point x="995" y="1422"/>
    </contour>
    <contour>
      <point x="2828" y="130" type="line" smooth="no"/>
      <point x="2469" y="130" type="line" smooth="no"/>
      <point x="2469" y="291" type="line" smooth="no"/>
      <point x="1953" y="291" type="line" smooth="no"/>
      <point x="1953" y="571" type="line" smooth="no"/>
      <point x="2123" y="1172" type="line" smooth="no"/>
      <point x="2508" y="1172" type="line" smooth="no"/>
      <point x="2339" y="571" type="line" smooth="no"/>
      <point x="2339" y="535" type="line" smooth="no"/>
      <point x="2469" y="535" type="line" smooth="no"/>
      <point x="2469" y="760" type="line" smooth="no"/>
      <point x="2828" y="760" type="line" smooth="no"/>
    </contour>
  </outline>
</glyph>
<glyph name="multiply" format="1">
  <advance width="1310"/>
  <unicode hex="00d7"/>
  <outline>
    <contour>
      <point x="1266" y="924" type="line" smooth="no"/>
      <point x="1008" y="649" type="line" smooth="no"/>
      <point x="1266" y="375" type="line" smooth="no"/>
      <point x="917" y="4" type="line" smooth="no"/>
      <point x="660" y="279" type="line" smooth="no"/>
      <point x="401" y="4" type="line" smooth="no"/>
      <point x="53" y="375" type="line" smooth="no"/>
      <point x="311" y="649" type="line" smooth="no"/>
      <point x="53" y="924" type="line" smooth="no"/>
      <point x="401" y="1294" type="line" smooth="no"/>
      <point x="660" y="1020" type="line" smooth="no"/>
      <point x="917" y="1294" type="line" smooth="no"/>
    </contour>
  </outline>
</glyph>
<glyph name="Oslash" format="1">
  <advance width="1542"/>
  <unicode hex="00d8"/>
  <outline>
    <contour>
      <point x="1292" y="1546" type="line" smooth="no"/>
      <point x="1403" y="1487"/>
      <point x="1472" y="1388"/>
      <point x="1472" y="1226" type="curve" smooth="yes"/>
      <point x="1472" y="370" type="line" smooth="yes"/>
      <point x="1472" y="16"/>
      <point x="1141" y="-39"/>
      <point x="778" y="-39" type="curve" smooth="no"/>
      <point x="779" y="-41" type="line" smooth="no"/>
      <point x="621" y="-41"/>
      <point x="470" y="-31"/>
      <point x="350" y="10" type="curve" smooth="no"/>
      <point x="242" y="-166" type="line" smooth="no"/>
      <point x="114" y="-70" type="line" smooth="no"/>
      <point x="210" y="85" type="line" smooth="no"/>
      <point x="135" y="147"/>
      <point x="90" y="238"/>
      <point x="90" y="370" type="curve" smooth="yes"/>
      <point x="90" y="1226" type="line" smooth="yes"/>
      <point x="90" y="1578"/>
      <point x="417" y="1630"/>
      <point x="778" y="1630" type="curve" smooth="yes"/>
      <point x="908" y="1630"/>
      <point x="1033" y="1623"/>
      <point x="1141" y="1599" type="curve" smooth="no"/>
      <point x="1275" y="1817" type="line" smooth="no"/>
      <point x="1396" y="1716" type="line" smooth="no"/>
    </contour>
    <contour>
      <point x="695" y="235" type="line" smooth="no"/>
      <point x="868" y="235" type="line" smooth="no"/>
      <point x="868" y="1362" type="line" smooth="no"/>
      <point x="695" y="1362" type="line" smooth="no"/>
    </contour>
  </outline>
</glyph>
<glyph name="Thorn" format="1">
  <advance width="1534"/>
  <unicode hex="00de"/>
  <outline>
    <contour>
      <point x="706" y="482" type="line" smooth="no"/>
      <point x="869" y="482" type="line" smooth="no"/>
      <point x="869" y="1182" type="line" smooth="no"/>
      <point x="706" y="1182" type="line" smooth="no"/>
    </contour>
    <contour>
      <point x="104" y="1599" type="line" smooth="no"/>
      <point x="706" y="1599" type="line" smooth="no"/>
      <point x="706" y="1413" type="line" smooth="no"/>
      <point x="843" y="1413" type="line" smooth="yes"/>
      <point x="1023" y="1413"/>
      <point x="1169" y="1397"/>
      <point x="1284" y="1347" type="curve" smooth="yes"/>
      <point x="1417" y="1289"/>
      <point x="1469" y="1205"/>
      <point x="1469" y="1022" type="curve" smooth="yes"/>
      <point x="1469" y="641" type="line" smooth="yes"/>
      <point x="1469" y="576"/>
      <point x="1467" y="519"/>
      <point x="1447" y="469" type="curve" smooth="yes"/>
      <point x="1371" y="284"/>
      <point x="1116" y="250"/>
      <point x="843" y="250" type="curve" smooth="yes"/>
      <point x="706" y="250" type="line" smooth="no"/>
      <point x="706" y="0" type="line" smooth="no"/>
      <point x="104" y="0" type="line" smooth="no"/>
    </contour>
  </outline>
</glyph>
<glyph name="ae" format="1">
  <advance width="2144"/>
  <unicode hex="00e6"/>
  <outline>
    <contour>
      <point x="1359" y="801" type="line" smooth="no"/>
      <point x="1503" y="801" type="line" smooth="no"/>
      <point x="1503" y="1055" type="line" smooth="no"/>
      <point x="1359" y="1055" type="line" smooth="no"/>
    </contour>
    <contour>
      <point x="637" y="604" type="line" smooth="no"/>
      <point x="637" y="252" type="line" smooth="no"/>
      <point x="787" y="252" type="line" smooth="no"/>
      <point x="787" y="604" type="line" smooth="no"/>
    </contour>
    <contour>
      <point x="129" y="1004" type="curve" smooth="yes"/>
      <point x="129" y="1299"/>
      <point x="424" y="1343"/>
      <point x="725" y="1343" type="curve" smooth="yes"/>
      <point x="871" y="1343"/>
      <point x="993" y="1320"/>
      <point x="1074" y="1261" type="curve" smooth="no"/>
      <point x="1072" y="1263" type="line" smooth="no"/>
      <point x="1159" y="1320"/>
      <point x="1282" y="1345"/>
      <point x="1431" y="1345" type="curve" smooth="yes"/>
      <point x="1613" y="1345"/>
      <point x="1760" y="1328"/>
      <point x="1877" y="1279" type="curve" smooth="yes"/>
      <point x="2011" y="1222"/>
      <point x="2075" y="1139"/>
      <point x="2075" y="956" type="curve" smooth="yes"/>
      <point x="2075" y="606" type="line" smooth="no"/>
      <point x="1359" y="606" type="line" smooth="no"/>
      <point x="1359" y="252" type="line" smooth="no"/>
      <point x="1503" y="252" type="line" smooth="no"/>
      <point x="1503" y="501" type="line" smooth="no"/>
      <point x="2074" y="501" type="line" smooth="no"/>
      <point x="2074" y="354" type="line" smooth="no"/>
      <point x="2067" y="14"/>
      <point x="1781" y="-36"/>
      <point x="1427" y="-36" type="curve" smooth="yes"/>
      <point x="1274" y="-36"/>
      <point x="1163" y="11"/>
      <point x="1079" y="77" type="curve" smooth="no"/>
      <point x="948" y="2"/>
      <point x="788" y="-36"/>
      <point x="577" y="-36" type="curve" smooth="yes"/>
      <point x="272" y="-36"/>
      <point x="69" y="92"/>
      <point x="69" y="388" type="curve" smooth="yes"/>
      <point x="69" y="692"/>
      <point x="229" y="824"/>
      <point x="538" y="824" type="curve" smooth="yes"/>
      <point x="641" y="824"/>
      <point x="718" y="808"/>
      <point x="787" y="783" type="curve" smooth="no"/>
      <point x="787" y="1054" type="line" smooth="no"/>
      <point x="664" y="1054" type="line" smooth="no"/>
      <point x="664" y="915" type="line" smooth="no"/>
      <point x="488" y="908"/>
      <point x="316" y="901"/>
      <point x="140" y="894" type="curve" smooth="no"/>
      <point x="134" y="929"/>
      <point x="129" y="965"/>
    </contour>
  </outline>
</glyph>
<glyph name="divide" format="1">
  <advance width="1286"/>
  <unicode hex="00f7"/>
  <outline>
    <contour>
      <point x="1229" y="908" type="line" smooth="no"/>
      <point x="1229" y="670" type="line" smooth="no"/>
      <point x="67" y="670" type="line" smooth="no"/>
      <point x="67" y="908" type="line" smooth="no"/>
    </contour>
    <contour>
      <point x="901" y="1000" type="line" smooth="no"/>
      <point x="394" y="1000" type="line" smooth="no"/>
      <point x="394" y="1497" type="line" smooth="no"/>
      <point x="901" y="1497" type="line" smooth="no"/>
    </contour>
    <contour>
      <point x="901" y="92" type="line" smooth="no"/>
      <point x="394" y="92" type="line" smooth="no"/>
      <point x="394" y="559" type="line" smooth="no"/>
      <point x="901" y="559" type="line" smooth="no"/>
    </contour>
  </outline>
</glyph>
<glyph name="thorn" format="1">
  <advance width="1430"/>
  <unicode hex="00fe"/>
  <outline>
    <contour>
      <point x="674" y="231" type="line" smooth="no"/>
      <point x="788" y="231" type="line" smooth="no"/>
      <point x="788" y="1069" type="line" smooth="no"/>
      <point x="674" y="1069" type="line" smooth="no"/>
    </contour>
    <contour>
      <point x="675" y="1227" type="line" smooth="no"/>
      <point x="714" y="1307"/>
      <point x="820" y="1323"/>
      <point x="948" y="1323" type="curve" smooth="yes"/>
      <point x="1200" y="1323"/>
      <point x="1350" y="1231"/>
      <point x="1360" y="995" type="curve" smooth="yes"/>
      <point x="1361" y="964"/>
      <point x="1362" y="935"/>
      <point x="1362" y="908" type="curve" smooth="yes"/>
      <point x="1362" y="390" type="line" smooth="yes"/>
      <point x="1362" y="229"/>
      <point x="1334" y="116"/>
      <point x="1239" y="48" type="curve" smooth="yes"/>
      <point x="1170" y="-2"/>
      <point x="1073" y="-24"/>
      <point x="948" y="-24" type="curve" smooth="yes"/>
      <point x="838" y="-24"/>
      <point x="746" y="-13"/>
      <point x="701" y="44" type="curve" smooth="yes"/>
      <point x="692" y="56"/>
      <point x="683" y="67"/>
      <point x="675" y="78" type="curve" smooth="no"/>
      <point x="675" y="-409" type="line" smooth="no"/>
      <point x="104" y="-409" type="line" smooth="no"/>
      <point x="104" y="1602" type="line" smooth="no"/>
      <point x="675" y="1602" type="line" smooth="no"/>
    </contour>
  </outline>
</glyph>
<glyph name="Dcroat" format="1">
  <advance width="1449"/>
  <unicode hex="0110"/>
  <outline>
    <contour>
      <point x="645" y="237" type="line" smooth="no"/>
      <point x="881" y="237" type="line" smooth="no"/>
      <point x="881" y="1358" type="line" smooth="no"/>
      <point x="645" y="1358" type="line" smooth="no"/>
      <point x="645" y="868" type="line" smooth="no"/>
      <point x="773" y="868" type="line" smooth="no"/>
      <point x="773" y="726" type="line" smooth="no"/>
      <point x="645" y="726" type="line" smooth="no"/>
    </contour>
    <contour>
      <point x="1378" y="393" type="line" smooth="no"/>
      <point x="1376" y="392" type="line" smooth="no"/>
      <point x="1376" y="218"/>
      <point x="1331" y="125"/>
      <point x="1210" y="66" type="curve" smooth="yes"/>
      <point x="1110" y="17"/>
      <point x="980" y="0"/>
      <point x="817" y="0" type="curve" smooth="yes"/>
      <point x="146" y="0" type="line" smooth="no"/>
      <point x="146" y="726" type="line" smooth="no"/>
      <point x="52" y="726" type="line" smooth="no"/>
      <point x="52" y="868" type="line" smooth="no"/>
      <point x="146" y="868" type="line" smooth="no"/>
      <point x="146" y="1595" type="line" smooth="no"/>
      <point x="817" y="1595" type="line" smooth="yes"/>
      <point x="1100" y="1595"/>
      <point x="1360" y="1546"/>
      <point x="1375" y="1289" type="curve" smooth="yes"/>
      <point x="1377" y="1259"/>
      <point x="1378" y="1231"/>
      <point x="1378" y="1204" type="curve" smooth="yes"/>
    </contour>
  </outline>
</glyph>
<glyph name="dcroat" format="1">
  <advance width="1478"/>
  <unicode hex="0111"/>
  <outline>
    <contour>
      <point x="500" y="1327" type="curve" smooth="yes"/>
      <point x="650" y="1327"/>
      <point x="756" y="1292"/>
      <point x="823" y="1215" type="curve" smooth="no"/>
      <point x="823" y="1477" type="line" smooth="no"/>
      <point x="645" y="1477" type="line" smooth="no"/>
      <point x="645" y="1638" type="line" smooth="no"/>
      <point x="823" y="1638" type="line" smooth="no"/>
      <point x="823" y="1710" type="line" smooth="no"/>
      <point x="1394" y="1710" type="line" smooth="no"/>
      <point x="1394" y="1638" type="line" smooth="no"/>
      <point x="1518" y="1638" type="line" smooth="no"/>
      <point x="1518" y="1477" type="line" smooth="no"/>
      <point x="1394" y="1477" type="line" smooth="no"/>
      <point x="1394" y="0" type="line" smooth="no"/>
      <point x="874" y="0" type="line" smooth="no"/>
      <point x="837" y="114" type="line" smooth="no"/>
      <point x="775" y="26"/>
      <point x="648" y="-27"/>
      <point x="502" y="-27" type="curve" smooth="yes"/>
      <point x="224" y="-27"/>
      <point x="85" y="106"/>
      <point x="85" y="377" type="curve" smooth="yes"/>
      <point x="85" y="940" type="line" smooth="yes"/>
      <point x="85" y="1203"/>
      <point x="228" y="1327"/>
    </contour>
    <contour>
      <point x="822" y="1105" type="line" smooth="no"/>
      <point x="655" y="1105" type="line" smooth="no"/>
      <point x="655" y="199" type="line" smooth="no"/>
      <point x="822" y="199" type="line" smooth="no"/>
    </contour>
  </outline>
</glyph>
<glyph name="gcedilla" format="1">
  <advance width="1470"/>
  <unicode hex="0123"/>
  <outline>
    <contour>
      <point x="826" y="1104" type="line" smooth="no"/>
      <point x="659" y="1104" type="line" smooth="no"/>
      <point x="659" y="316" type="line" smooth="no"/>
      <point x="826" y="316" type="line" smooth="no"/>
    </contour>
    <contour>
      <point x="511" y="1327" type="curve" smooth="no"/>
      <point x="511" y="1326" type="line" smooth="no"/>
      <point x="667" y="1326"/>
      <point x="784" y="1276"/>
      <point x="850" y="1187" type="curve" smooth="no"/>
      <point x="886" y="1299" type="line" smooth="no"/>
      <point x="1397" y="1299" type="line" smooth="no"/>
      <point x="1397" y="236" type="line" smooth="yes"/>
      <point x="1397" y="-184"/>
      <point x="1170" y="-372"/>
      <point x="678" y="-372" type="curve" smooth="yes"/>
      <point x="478" y="-372"/>
      <point x="324" y="-345"/>
      <point x="201" y="-311" type="curve" smooth="no"/>
      <point x="258" y="-20" type="line" smooth="no"/>
      <point x="408" y="-61"/>
      <point x="738" y="-82"/>
      <point x="839" y="-22" type="curve" smooth="no"/>
      <point x="839" y="205" type="line" smooth="no"/>
      <point x="777" y="125"/>
      <point x="647" y="91"/>
      <point x="508" y="91" type="curve" smooth="yes"/>
      <point x="237" y="91"/>
      <point x="88" y="214"/>
      <point x="88" y="482" type="curve" smooth="yes"/>
      <point x="88" y="927" type="line" smooth="yes"/>
      <point x="88" y="1196"/>
      <point x="234" y="1327"/>
    </contour>
  </outline>
</glyph>
<glyph name="dotlessi" format="1">
  <advance width="744"/>
  <unicode hex="0131"/>
  <outline>
    <contour>
      <point x="669" y="0" type="line" smooth="no"/>
      <point x="100" y="0" type="line" smooth="no"/>
      <point x="100" y="1298" type="line" smooth="no"/>
      <point x="669" y="1298" type="line" smooth="no"/>
    </contour>
  </outline>
</glyph>
<glyph name="IJ" format="1">
  <advance width="1667"/>
  <unicode hex="0132"/>
  <outline>
    <contour>
      <point x="1596" y="334" type="line" smooth="yes"/>
      <point x="1596" y="-10"/>
      <point x="1268" y="-75"/>
      <point x="916" y="-75" type="curve" smooth="no"/>
      <point x="916" y="-76" type="line" smooth="no"/>
      <point x="882" y="-76"/>
      <point x="851" y="-75"/>
      <point x="819" y="-74" type="curve" smooth="no"/>
      <point x="819" y="198" type="line" smooth="no"/>
      <point x="992" y="198" type="line" smooth="no"/>
      <point x="992" y="1594" type="line" smooth="no"/>
      <point x="1596" y="1594" type="line" smooth="no"/>
    </contour>
    <contour>
      <point x="720" y="1595" type="line" smooth="no"/>
      <point x="720" y="0" type="line" smooth="no"/>
      <point x="116" y="0" type="line" smooth="no"/>
      <point x="116" y="1595" type="line" smooth="no"/>
    </contour>
  </outline>
</glyph>
<glyph name="lslash" format="1">
  <advance width="1145"/>
  <unicode hex="0142"/>
  <outline>
    <contour>
      <point x="852" y="0" type="line" smooth="no"/>
      <point x="281" y="0" type="line" smooth="no"/>
      <point x="281" y="641" type="line" smooth="no"/>
      <point x="64" y="539" type="line" smooth="no"/>
      <point x="64" y="788" type="line" smooth="no"/>
      <point x="281" y="890" type="line" smooth="no"/>
      <point x="281" y="1710" type="line" smooth="no"/>
      <point x="852" y="1710" type="line" smooth="no"/>
      <point x="852" y="1158" type="line" smooth="no"/>
      <point x="1094" y="1271" type="line" smooth="no"/>
      <point x="1094" y="1023" type="line" smooth="no"/>
      <point x="852" y="909" type="line" smooth="no"/>
    </contour>
  </outline>
</glyph>
<glyph name="uni0237" format="1">
  <advance width="868"/>
  <unicode hex="0237"/>
  <outline>
    <contour>
      <point x="784" y="94" type="line" smooth="yes"/>
      <point x="784" y="-199"/>
      <point x="620" y="-326"/>
      <point x="323" y="-326" type="curve" smooth="yes"/>
      <point x="214" y="-326"/>
      <point x="134" y="-321"/>
      <point x="53" y="-305" type="curve" smooth="no"/>
      <point x="23" y="-66" type="line" smooth="no"/>
      <point x="212" y="-66" type="line" smooth="no"/>
      <point x="212" y="1300" type="line" smooth="no"/>
      <point x="784" y="1300" type="line" smooth="no"/>
    </contour>
  </outline>
</glyph>
<glyph name="breve" format="1">
  <advance width="1062"/>
  <unicode hex="02d8"/>
  <outline>
    <contour>
      <point x="537" y="1398" type="curve" smooth="yes"/>
      <point x="155" y="1398"/>
      <point x="75" y="1596"/>
      <point x="75" y="1879" type="curve" smooth="no"/>
      <point x="372" y="1879" type="line" smooth="no"/>
      <point x="372" y="1772"/>
      <point x="380" y="1701"/>
      <point x="537" y="1701" type="curve" smooth="yes"/>
      <point x="694" y="1701"/>
      <point x="702" y="1772"/>
      <point x="702" y="1879" type="curve" smooth="no"/>
      <point x="999" y="1879" type="line" smooth="no"/>
      <point x="999" y="1596"/>
      <point x="919" y="1398"/>
    </contour>
  </outline>
</glyph>
<glyph name="dotaccent" format="1">
  <advance width="670"/>
  <unicode hex="02d9"/>
  <outline>
    <contour>
      <point x="591" y="0" type="line" smooth="no"/>
      <point x="84" y="0" type="line" smooth="no"/>
      <point x="84" y="467" type="line" smooth="no"/>
      <point x="591" y="467" type="line" smooth="no"/>
    </contour>
  </outline>
</glyph>
<glyph name="ring" format="1">
  <advance width="805"/>
  <unicode hex="02da"/>
  <outline>
    <contour>
      <point x="403" y="552" type="curve" smooth="yes"/>
      <point x="333" y="552"/>
      <point x="282" y="500"/>
      <point x="282" y="430" type="curve" smooth="yes"/>
      <point x="282" y="362"/>
      <point x="335" y="309"/>
      <point x="403" y="309" type="curve" smooth="yes"/>
      <point x="470" y="309"/>
      <point x="524" y="363"/>
      <point x="524" y="430" type="curve" smooth="yes"/>
      <point x="524" y="499"/>
      <point x="471" y="552"/>
    </contour>
    <contour>
      <point x="738" y="430" type="curve" smooth="yes"/>
      <point x="738" y="243"/>
      <point x="592" y="110"/>
      <point x="405" y="110" type="curve" smooth="yes"/>
      <point x="252" y="110"/>
      <point x="146" y="197"/>
      <point x="98" y="305" type="curve" smooth="yes"/>
      <point x="81" y="344"/>
      <point x="72" y="386"/>
      <point x="72" y="430" type="curve" smooth="yes"/>
      <point x="72" y="619"/>
      <point x="216" y="752"/>
      <point x="405" y="752" type="curve" smooth="yes"/>
      <point x="558" y="752"/>
      <point x="664" y="664"/>
      <point x="712" y="556" type="curve" smooth="yes"/>
      <point x="729" y="517"/>
      <point x="738" y="475"/>
    </contour>
  </outline>
</glyph>
<glyph name="quoteleft" format="1">
  <advance width="722"/>
  <unicode hex="2018"/>
  <outline>
    <contour>
      <point x="569" y="1187" type="curve" smooth="yes"/>
      <point x="569" y="1054"/>
      <point x="472" y="987"/>
      <point x="375" y="987" type="curve" smooth="yes"/>
      <point x="224" y="987"/>
      <point x="155" y="1098"/>
      <point x="155" y="1227" type="curve" smooth="yes"/>
      <point x="155" y="1411"/>
      <point x="281" y="1630"/>
      <point x="502" y="1630" type="curve" smooth="yes"/>
      <point x="516" y="1630"/>
      <point x="531" y="1629"/>
      <point x="546" y="1627" type="curve" smooth="no"/>
      <point x="546" y="1518" type="line" smooth="no"/>
      <point x="466" y="1517"/>
      <point x="396" y="1473"/>
      <point x="390" y="1396" type="curve" smooth="no"/>
      <point x="483" y="1386"/>
      <point x="569" y="1316"/>
    </contour>
  </outline>
</glyph>
<glyph name="quotedblright" format="1">
  <advance width="1327"/>
  <unicode hex="201d"/>
  <outline>
    <contour>
      <point x="757" y="1430" type="curve" smooth="yes"/>
      <point x="757" y="1563"/>
      <point x="859" y="1630"/>
      <point x="961" y="1630" type="curve" smooth="yes"/>
      <point x="1105" y="1630"/>
      <point x="1171" y="1519"/>
      <point x="1171" y="1390" type="curve" smooth="yes"/>
      <point x="1171" y="1206"/>
      <point x="1045" y="987"/>
      <point x="824" y="987" type="curve" smooth="yes"/>
      <point x="810" y="987"/>
      <point x="795" y="988"/>
      <point x="780" y="990" type="curve" smooth="no"/>
      <point x="780" y="1099" type="line" smooth="no"/>
      <point x="860" y="1100"/>
      <point x="930" y="1144"/>
      <point x="936" y="1221" type="curve" smooth="no"/>
      <point x="843" y="1231"/>
      <point x="757" y="1301"/>
    </contour>
    <contour>
      <point x="254" y="1430" type="curve" smooth="yes"/>
      <point x="254" y="1563"/>
      <point x="356" y="1630"/>
      <point x="458" y="1630" type="curve" smooth="yes"/>
      <point x="602" y="1630"/>
      <point x="668" y="1519"/>
      <point x="668" y="1390" type="curve" smooth="yes"/>
      <point x="668" y="1206"/>
      <point x="542" y="987"/>
      <point x="321" y="987" type="curve" smooth="yes"/>
      <point x="307" y="987"/>
      <point x="292" y="988"/>
      <point x="277" y="990" type="curve" smooth="no"/>
      <point x="277" y="1099" type="line" smooth="no"/>
      <point x="357" y="1100"/>
      <point x="427" y="1144"/>
      <point x="433" y="1221" type="curve" smooth="no"/>
      <point x="340" y="1231"/>
      <point x="254" y="1301"/>
    </contour>
  </outline>
</glyph>
<glyph name="uni2074" format="1">
  <advance width="1298"/>
  <unicode hex="2074"/>
  <outline>
    <contour>
      <point x="1096" y="130" type="line" smooth="no"/>
      <point x="737" y="130" type="line" smooth="no"/>
      <point x="737" y="291" type="line" smooth="no"/>
      <point x="221" y="291" type="line" smooth="no"/>
      <point x="221" y="571" type="line" smooth="no"/>
      <point x="391" y="1172" type="line" smooth="no"/>
      <point x="776" y="1172" type="line" smooth="no"/>
      <point x="607" y="571" type="line" smooth="no"/>
      <point x="607" y="535" type="line" smooth="no"/>
      <point x="737" y="535" type="line" smooth="no"/>
      <point x="737" y="760" type="line" smooth="no"/>
      <point x="1096" y="760" type="line" smooth="no"/>
    </contour>
  </outline>
</glyph>
<glyph name="Euro" format="1">
  <advance width="1432"/>
  <unicode hex="20ac"/>
  <outline>
    <contour>
      <point x="0" y="705" type="line" smooth="no"/>
      <point x="90" y="705" type="line" smooth="no"/>
      <point x="90" y="843" type="line" smooth="no"/>
      <point x="0" y="843" type="line" smooth="no"/>
      <point x="0" y="987" type="line" smooth="no"/>
      <point x="90" y="987" type="line" smooth="no"/>
      <point x="90" y="1226" type="line" smooth="yes"/>
      <point x="90" y="1598"/>
      <point x="483" y="1632"/>
      <point x="783" y="1632" type="curve" smooth="yes"/>
      <point x="1098" y="1632"/>
      <point x="1472" y="1606"/>
      <point x="1472" y="1227" type="curve" smooth="yes"/>
      <point x="1472" y="1139" type="line" smooth="no"/>
      <point x="868" y="1139" type="line" smooth="no"/>
      <point x="868" y="1356" type="line" smooth="no"/>
      <point x="695" y="1356" type="line" smooth="no"/>
      <point x="695" y="988" type="line" smooth="no"/>
      <point x="1037" y="988" type="line" smooth="no"/>
      <point x="1037" y="843" type="line" smooth="no"/>
      <point x="695" y="843" type="line" smooth="no"/>
      <point x="695" y="706" type="line" smooth="no"/>
      <point x="1037" y="706" type="line" smooth="no"/>
      <point x="1037" y="561" type="line" smooth="no"/>
      <point x="695" y="561" type="line" smooth="no"/>
      <point x="695" y="233" type="line" smooth="no"/>
      <point x="868" y="233" type="line" smooth="no"/>
      <point x="868" y="451" type="line" smooth="no"/>
      <point x="1472" y="451" type="line" smooth="no"/>
      <point x="1472" y="369" type="line" smooth="yes"/>
      <point x="1472" y="-6"/>
      <point x="1090" y="-40"/>
      <point x="786" y="-40" type="curve" smooth="yes"/>
      <point x="511" y="-40"/>
      <point x="90" y="-9"/>
      <point x="90" y="370" type="curve" smooth="yes"/>
      <point x="90" y="561" type="line" smooth="no"/>
      <point x="0" y="561" type="line" smooth="no"/>
    </contour>
  </outline>
</glyph>
<glyph name="commaaccent" format="1">
  <advance width="380"/>
  <outline>
    <contour>
      <point x="-17" y="-295" type="curve" smooth="yes"/>
      <point x="-17" y="-162"/>
      <point x="85" y="-95"/>
      <point x="187" y="-95" type="curve" smooth="yes"/>
      <point x="331" y="-95"/>
      <point x="397" y="-206"/>
      <point x="397" y="-335" type="curve" smooth="yes"/>
      <point x="397" y="-519"/>
      <point x="271" y="-738"/>
      <point x="50" y="-738" type="curve" smooth="yes"/>
      <point x="36" y="-738"/>
      <point x="21" y="-737"/>
      <point x="6" y="-735" type="curve" smooth="no"/>
      <point x="6" y="-626" type="line" smooth="no"/>
      <point x="86" y="-625"/>
      <point x="156" y="-581"/>
      <point x="162" y="-504" type="curve" smooth="no"/>
      <point x="69" y="-494"/>
      <point x="-17" y="-424"/>
    </contour>
  </outline>
</glyph>
